<svg width="742" height="199" viewBox="0 0 742 199" fill="none" xmlns="http://www.w3.org/2000/svg">
<path d="M-0.000428767 155.208V-6.01121e-05H104.583V27.0553H32.8147V64.0386H99.2027V91.094H32.8147V128.153H104.887V155.208H-0.000428767ZM163.26 157.406C155.833 157.406 149.215 156.118 143.405 153.541C137.594 150.914 132.997 147.049 129.612 141.946C126.277 136.793 124.61 130.376 124.61 122.697C124.61 116.23 125.797 110.798 128.172 106.403C130.546 102.007 133.78 98.4705 137.872 95.7927C141.965 93.115 146.613 91.094 151.817 89.7299C157.071 88.3658 162.578 87.4058 168.338 86.85C175.108 86.1427 180.565 85.4859 184.708 84.8796C188.851 84.2228 191.857 83.2629 193.726 81.9998C195.595 80.7367 196.53 78.8673 196.53 76.3917V75.9369C196.53 71.1372 195.014 67.4237 191.983 64.7965C189.002 62.1693 184.758 60.8556 179.251 60.8556C173.441 60.8556 168.818 62.144 165.382 64.7207C161.947 67.2469 159.673 70.4299 158.562 74.2697L128.702 71.8445C130.218 64.7712 133.199 58.6579 137.645 53.5045C142.091 48.3005 147.825 44.3091 154.848 41.5303C161.921 38.701 170.106 37.2864 179.403 37.2864C185.87 37.2864 192.059 38.0442 197.97 39.5599C203.932 41.0756 209.212 43.425 213.809 46.608C218.457 49.791 222.12 53.8834 224.798 58.8852C227.476 63.8365 228.815 69.7731 228.815 76.6948V155.208H198.197V139.066H197.288C195.419 142.704 192.918 145.912 189.785 148.691C186.653 151.419 182.889 153.566 178.493 155.133C174.098 156.648 169.02 157.406 163.26 157.406ZM172.506 135.125C177.255 135.125 181.449 134.191 185.087 132.321C188.724 130.401 191.579 127.825 193.65 124.591C195.722 121.358 196.757 117.695 196.757 113.602V101.249C195.747 101.906 194.358 102.512 192.589 103.068C190.871 103.573 188.926 104.053 186.754 104.508C184.581 104.912 182.409 105.291 180.236 105.645C178.064 105.948 176.093 106.226 174.325 106.478C170.536 107.034 167.226 107.918 164.397 109.131C161.568 110.344 159.37 111.986 157.804 114.057C156.238 116.078 155.454 118.604 155.454 121.636C155.454 126.031 157.046 129.391 160.229 131.715C163.462 133.989 167.555 135.125 172.506 135.125ZM350.716 71.9961L321.159 73.8149C320.654 71.2888 319.568 69.0152 317.9 66.9943C316.233 64.9228 314.035 63.2808 311.307 62.0682C308.629 60.8051 305.421 60.1736 301.682 60.1736C296.681 60.1736 292.462 61.2346 289.026 63.3566C285.591 65.428 283.873 68.2068 283.873 71.693C283.873 74.4718 284.984 76.8211 287.207 78.741C289.43 80.6609 293.245 82.2019 298.651 83.3639L319.719 87.6079C331.037 89.932 339.474 93.6707 345.032 98.8241C350.589 103.978 353.368 110.748 353.368 119.135C353.368 126.764 351.12 133.458 346.623 139.218C342.177 144.977 336.064 149.474 328.283 152.708C320.553 155.891 311.636 157.482 301.531 157.482C286.121 157.482 273.844 154.274 264.699 147.857C255.605 141.39 250.275 132.599 248.708 121.484L280.462 119.817C281.422 124.515 283.747 128.103 287.435 130.578C291.123 133.003 295.847 134.216 301.607 134.216C307.265 134.216 311.812 133.13 315.248 130.957C318.734 128.734 320.502 125.88 320.553 122.393C320.502 119.463 319.265 117.063 316.839 115.194C314.414 113.274 310.676 111.809 305.623 110.798L285.464 106.782C274.097 104.508 265.634 100.567 260.076 94.9591C254.569 89.351 251.816 82.2019 251.816 73.5118C251.816 66.0343 253.837 59.5925 257.878 54.1865C261.971 48.7805 267.705 44.6123 275.082 41.6819C282.509 38.7516 291.199 37.2864 301.152 37.2864C315.854 37.2864 327.424 40.3936 335.862 46.608C344.35 52.8224 349.301 61.2851 350.716 71.9961ZM393.629 198.861C389.537 198.861 385.697 198.533 382.11 197.876C378.573 197.269 375.643 196.486 373.319 195.526L380.594 171.427C384.383 172.589 387.794 173.22 390.825 173.321C393.907 173.422 396.559 172.715 398.782 171.199C401.056 169.684 402.9 167.107 404.315 163.469L406.209 158.543L364.452 38.8021H398.404L422.503 124.288H423.716L448.043 38.8021H482.222L436.978 167.789C434.806 174.054 431.85 179.51 428.111 184.159C424.423 188.857 419.75 192.47 414.091 194.996C408.432 197.573 401.612 198.861 393.629 198.861ZM575.495 155.208H540.331L593.911 -6.01121e-05H636.199L689.704 155.208H654.539L615.661 35.4675H614.449L575.495 155.208ZM573.297 94.2012H656.358V119.817H573.297V94.2012ZM741.2 -6.01121e-05V155.208H708.385V-6.01121e-05H741.2Z" fill="white"/>
</svg>
