<svg width="403" height="403" viewBox="0 0 403 403" fill="none" xmlns="http://www.w3.org/2000/svg">
<g clip-path="url(#clip0_6156_24)">
<path d="M307.633 0H95C42.5329 0 0 42.5329 0 95V307.633C0 360.1 42.5329 402.633 95 402.633H307.633C360.1 402.633 402.633 360.1 402.633 307.633V95C402.633 42.5329 360.1 0 307.633 0Z" fill="#3FCA58"/>
<path d="M290.354 139.011C292.695 138.966 295.008 139.527 297.079 140.643C299.15 141.759 300.912 143.394 302.199 145.394C303.486 147.394 304.258 149.695 304.442 152.082C306.561 176.979 301.693 201.978 290.411 224.143C279.129 246.308 261.902 264.719 240.751 277.214C219.6 289.709 195.404 295.77 171.005 294.684C146.605 293.598 123.015 285.411 103.004 271.084C101.076 269.726 99.5156 267.891 98.4677 265.75C97.4197 263.609 96.919 261.231 97.0107 258.838C97.1024 256.445 97.7836 254.115 98.9921 252.065C100.201 250.014 101.896 248.31 103.922 247.111C106.207 245.762 108.82 245.107 111.455 245.223C114.09 245.338 116.64 246.219 118.804 247.763C134.495 259.024 153.004 265.464 172.151 266.327C191.298 267.19 210.288 262.44 226.887 252.635C243.485 242.83 257.003 228.378 265.849 210.98C274.694 193.581 278.498 173.959 276.816 154.422C276.587 151.732 277.113 149.032 278.331 146.637C279.549 144.242 281.411 142.252 283.695 140.902C285.723 139.706 288.014 139.056 290.354 139.011ZM118.79 164.059C120.598 163.815 122.436 163.939 124.197 164.422C125.959 164.905 127.611 165.738 129.058 166.874C130.504 168.01 131.718 169.427 132.63 171.043L132.662 171.024L143.167 189.643C144.08 191.261 144.673 193.048 144.911 194.901C145.149 196.753 145.029 198.636 144.557 200.441C144.084 202.246 143.268 203.938 142.156 205.42C141.044 206.903 139.659 208.147 138.077 209.081C134.883 210.968 131.087 211.48 127.524 210.503C123.962 209.526 120.925 207.141 119.081 203.873L108.575 185.254C106.734 181.99 106.235 178.111 107.188 174.471C108.142 170.83 110.469 167.726 113.659 165.841C115.238 164.908 116.982 164.302 118.79 164.059ZM161.444 125.961C163.255 125.717 165.094 125.841 166.858 126.324C168.622 126.808 170.276 127.643 171.725 128.78C173.173 129.918 174.39 131.336 175.303 132.954L195.305 168.405L197.109 171.604C200.797 178.14 201.797 185.909 199.888 193.199C197.978 200.49 193.317 206.708 186.929 210.482L151.216 147.185C149.372 143.916 148.873 140.032 149.827 136.387C150.782 132.741 153.111 129.632 156.306 127.745C157.887 126.811 159.634 126.205 161.444 125.961ZM215.16 107.125C216.971 106.877 218.812 106.998 220.577 107.48C222.342 107.961 223.997 108.794 225.447 109.931C226.897 111.068 228.114 112.487 229.027 114.106L239.532 132.724C240.445 134.342 241.038 136.129 241.276 137.982C241.515 139.834 241.394 141.718 240.922 143.523C240.449 145.328 239.633 147.02 238.521 148.502C237.41 149.985 236.024 151.229 234.442 152.163C231.248 154.05 227.452 154.562 223.89 153.585C220.327 152.608 217.289 150.223 215.445 146.954L204.94 128.336C203.099 125.072 202.6 121.193 203.554 117.552C204.507 113.911 206.835 110.808 210.024 108.923C211.604 107.984 213.349 107.373 215.16 107.125Z" fill="white"/>
</g>
<defs>
<clipPath id="clip0_6156_24">
<rect width="403" height="403" fill="white"/>
</clipPath>
</defs>
</svg>
