<svg width="1451" height="403" viewBox="0 0 1451 403" fill="none" xmlns="http://www.w3.org/2000/svg">
<rect width="402.633" height="402.633" rx="95" fill="#3FCA58"/>
<path d="M290.354 139.011C292.695 138.966 295.008 139.527 297.079 140.643C299.15 141.759 300.912 143.394 302.199 145.394C303.486 147.394 304.258 149.695 304.442 152.082C306.561 176.979 301.693 201.978 290.411 224.143C279.129 246.308 261.902 264.719 240.751 277.214C219.6 289.709 195.404 295.77 171.005 294.684C146.605 293.598 123.015 285.411 103.004 271.084C101.076 269.726 99.5156 267.891 98.4677 265.75C97.4197 263.609 96.919 261.231 97.0107 258.838C97.1024 256.445 97.7836 254.115 98.9921 252.065C100.201 250.014 101.896 248.31 103.922 247.111C106.207 245.762 108.82 245.107 111.455 245.223C114.09 245.338 116.64 246.219 118.804 247.763C134.495 259.024 153.004 265.464 172.151 266.327C191.298 267.19 210.288 262.44 226.887 252.635C243.485 242.83 257.003 228.378 265.849 210.98C274.694 193.581 278.498 173.959 276.816 154.422C276.587 151.732 277.113 149.032 278.331 146.637C279.549 144.242 281.411 142.252 283.695 140.902C285.723 139.706 288.014 139.056 290.354 139.011ZM118.79 164.059C120.598 163.815 122.436 163.939 124.197 164.422C125.959 164.905 127.611 165.738 129.058 166.874C130.504 168.01 131.718 169.427 132.63 171.043L132.662 171.024L143.167 189.643C144.08 191.261 144.673 193.048 144.911 194.901C145.149 196.753 145.029 198.636 144.557 200.441C144.084 202.246 143.268 203.938 142.156 205.42C141.044 206.903 139.659 208.147 138.077 209.081C134.883 210.968 131.087 211.48 127.524 210.503C123.962 209.526 120.925 207.141 119.081 203.873L108.575 185.254C106.734 181.99 106.235 178.111 107.188 174.471C108.142 170.83 110.469 167.726 113.659 165.841C115.238 164.908 116.982 164.302 118.79 164.059ZM161.444 125.961C163.255 125.717 165.094 125.841 166.858 126.324C168.622 126.808 170.276 127.643 171.725 128.78C173.173 129.918 174.39 131.336 175.303 132.954L195.305 168.405L197.109 171.604C200.797 178.14 201.797 185.909 199.888 193.199C197.978 200.49 193.317 206.708 186.929 210.482L151.216 147.185C149.372 143.916 148.873 140.032 149.827 136.387C150.782 132.741 153.111 129.632 156.306 127.745C157.887 126.811 159.634 126.205 161.444 125.961ZM215.16 107.125C216.971 106.877 218.812 106.998 220.577 107.48C222.342 107.961 223.997 108.794 225.447 109.931C226.897 111.068 228.114 112.487 229.027 114.106L239.532 132.724C240.445 134.342 241.038 136.129 241.276 137.982C241.515 139.834 241.394 141.718 240.922 143.523C240.449 145.328 239.633 147.02 238.521 148.502C237.41 149.985 236.024 151.229 234.442 152.163C231.248 154.05 227.452 154.562 223.89 153.585C220.327 152.608 217.289 150.223 215.445 146.954L204.94 128.336C203.099 125.072 202.6 121.193 203.554 117.552C204.507 113.911 206.835 110.808 210.024 108.923C211.604 107.984 213.349 107.373 215.16 107.125Z" fill="white"/>
<path d="M595.49 291V135.791H700.074V162.847H628.305V199.83H694.693V226.886H628.305V263.945H700.377V291H595.49ZM758.751 293.198C751.324 293.198 744.705 291.909 738.895 289.333C733.085 286.705 728.487 282.84 725.102 277.738C721.767 272.584 720.1 266.168 720.1 258.488C720.1 252.021 721.287 246.59 723.662 242.194C726.037 237.799 729.27 234.262 733.362 231.584C737.455 228.906 742.103 226.886 747.307 225.521C752.561 224.157 758.068 223.197 763.828 222.642C770.598 221.934 776.055 221.277 780.198 220.671C784.341 220.014 787.347 219.054 789.216 217.791C791.086 216.528 792.02 214.659 792.02 212.183V211.728C792.02 206.929 790.505 203.215 787.473 200.588C784.492 197.961 780.248 196.647 774.741 196.647C768.931 196.647 764.308 197.935 760.873 200.512C757.437 203.038 755.163 206.221 754.052 210.061L724.192 207.636C725.708 200.563 728.689 194.449 733.135 189.296C737.581 184.092 743.316 180.101 750.338 177.322C757.412 174.493 765.597 173.078 774.893 173.078C781.36 173.078 787.549 173.836 793.46 175.351C799.422 176.867 804.702 179.216 809.299 182.399C813.948 185.582 817.611 189.675 820.288 194.677C822.966 199.628 824.305 205.565 824.305 212.486V291H793.688V274.858H792.778C790.909 278.495 788.408 281.704 785.275 284.482C782.143 287.211 778.379 289.358 773.983 290.924C769.588 292.44 764.51 293.198 758.751 293.198ZM767.996 270.917C772.746 270.917 776.939 269.982 780.577 268.113C784.214 266.193 787.069 263.616 789.141 260.383C791.212 257.149 792.248 253.486 792.248 249.394V237.041C791.237 237.698 789.848 238.304 788.08 238.86C786.362 239.365 784.417 239.845 782.244 240.3C780.072 240.704 777.899 241.083 775.726 241.436C773.554 241.739 771.584 242.017 769.815 242.27C766.026 242.826 762.717 243.71 759.887 244.922C757.058 246.135 754.86 247.777 753.294 249.849C751.728 251.869 750.945 254.396 750.945 257.427C750.945 261.823 752.536 265.182 755.719 267.507C758.953 269.78 763.045 270.917 767.996 270.917ZM946.206 207.788L916.649 209.606C916.144 207.08 915.058 204.807 913.391 202.786C911.723 200.714 909.526 199.072 906.797 197.86C904.12 196.597 900.911 195.965 897.173 195.965C892.171 195.965 887.952 197.026 884.516 199.148C881.081 201.22 879.363 203.998 879.363 207.484C879.363 210.263 880.475 212.613 882.698 214.533C884.921 216.452 888.735 217.993 894.141 219.155L915.21 223.399C926.527 225.723 934.964 229.462 940.522 234.616C946.079 239.769 948.858 246.539 948.858 254.926C948.858 262.555 946.61 269.25 942.113 275.009C937.667 280.769 931.554 285.266 923.773 288.499C916.043 291.682 907.126 293.274 897.021 293.274C881.611 293.274 869.334 290.065 860.189 283.649C851.095 277.182 845.765 268.391 844.199 257.275L875.953 255.608C876.913 260.307 879.237 263.894 882.925 266.37C886.613 268.795 891.337 270.007 897.097 270.007C902.755 270.007 907.303 268.921 910.738 266.749C914.224 264.526 915.993 261.671 916.043 258.185C915.993 255.255 914.755 252.855 912.33 250.985C909.905 249.065 906.166 247.6 901.113 246.59L880.955 242.573C869.587 240.3 861.124 236.359 855.566 230.751C850.059 225.142 847.306 217.993 847.306 209.303C847.306 201.826 849.327 195.384 853.369 189.978C857.461 184.572 863.195 180.404 870.572 177.473C877.999 174.543 886.689 173.078 896.642 173.078C911.345 173.078 922.914 176.185 931.352 182.399C939.84 188.614 944.791 197.077 946.206 207.788ZM989.119 334.652C985.027 334.652 981.187 334.324 977.6 333.667C974.063 333.061 971.133 332.278 968.809 331.318L976.084 307.218C979.873 308.38 983.284 309.012 986.315 309.113C989.397 309.214 992.05 308.506 994.273 306.991C996.546 305.475 998.39 302.898 999.805 299.261L1001.7 294.335L959.942 174.594H993.894L1017.99 260.08H1019.21L1043.53 174.594H1077.71L1032.47 303.58C1030.3 309.845 1027.34 315.302 1023.6 319.95C1019.91 324.649 1015.24 328.261 1009.58 330.787C1003.92 333.364 997.102 334.652 989.119 334.652ZM1170.99 291H1135.82L1189.4 135.791H1231.69L1285.19 291H1250.03L1211.15 171.259H1209.94L1170.99 291ZM1168.79 229.993H1251.85V255.608H1168.79V229.993ZM1336.69 135.791V291H1303.88V135.791H1336.69Z" fill="white"/>
</svg>
