<svg width="751" height="260" viewBox="0 0 751 260" fill="none" xmlns="http://www.w3.org/2000/svg">
<path d="M71.3578 7H6.80859L86.9234 118.951L119.71 73.8689L71.3578 7Z" fill="white" stroke="white" stroke-width="7"/>
<path d="M187.211 253.049H251.76L163.645 130.098L130.858 175.18L187.211 253.049Z" fill="white" stroke="white" stroke-width="7"/>
<path d="M7.90625 256.123L186.185 7.14752H253.808L74.5046 256.123H7.90625Z" fill="white" stroke="white" stroke-width="7"/>
<rect x="266.809" y="110" width="117" height="44" fill="white"/>
<path d="M748.657 1.5V257.5H691.443V1.5H748.657Z" fill="white" stroke="white" stroke-width="3"/>
<path d="M567.744 1.5L568.103 2.48828L659.906 255.488L660.636 257.5H599.978L599.619 256.513L585.521 217.743H486.783L472.686 256.513L472.326 257.5H411.669L412.398 255.488L504.201 2.48828L504.56 1.5H567.744ZM539.285 91.583C538.161 88.5158 533.82 88.5241 532.708 91.5957L507.75 160.528H564.545L539.285 91.583Z" fill="white" stroke="white" stroke-width="3"/>
</svg>
