<svg width="473" height="99" viewBox="0 0 473 99" fill="none" xmlns="http://www.w3.org/2000/svg">
<mask id="mask0_4910_1237" style="mask-type:alpha" maskUnits="userSpaceOnUse" x="0" y="0" width="473" height="99">
<rect width="473" height="99" fill="#D9D9D9"/>
</mask>
<g mask="url(#mask0_4910_1237)">
<path d="M68.0287 40.7675C67.6246 41.0015 67.2954 41.3462 67.0799 41.7612C66.8643 42.1761 66.7713 42.644 66.8119 43.11C67.1095 46.4948 66.4363 49.8943 64.8714 52.9087C63.3066 55.923 60.9153 58.4269 57.9787 60.1256C55.0422 61.8244 51.6826 62.6474 48.2952 62.4979C44.9078 62.3484 41.6334 61.2325 38.8573 59.2815C38.4745 59.0141 38.0236 58.8614 37.5574 58.8414C37.0911 58.8214 36.6289 58.9349 36.2247 59.1686C35.8663 59.3764 35.5663 59.6716 35.3525 60.0269C35.1387 60.3821 35.0181 60.7858 35.0019 61.2004C34.9857 61.6149 35.0744 62.0269 35.2598 62.3978C35.4452 62.7687 35.7212 63.0867 36.0622 63.3219C39.6024 65.8041 43.7758 67.2225 48.0924 67.4106C52.409 67.5988 56.6895 66.5488 60.4314 64.384C64.1732 62.2192 67.2211 59.0295 69.217 55.1893C71.2129 51.3492 72.074 47.0181 71.6992 42.7046C71.6666 42.291 71.5301 41.8923 71.3023 41.5458C71.0745 41.1992 70.7629 40.9161 70.3966 40.7227C70.0302 40.5294 69.6209 40.4321 69.2069 40.4399C68.7929 40.4477 68.3876 40.5604 68.0287 40.7675Z" fill="white"/>
<path d="M48.8544 39.3823L52.7139 46.0812C53.3664 47.2137 53.5432 48.5596 53.2055 49.8228C52.8677 51.086 52.043 52.163 50.9129 52.8168L44.5948 41.8506C44.2686 41.2843 44.1802 40.6114 44.3491 39.9798C44.518 39.3482 44.9303 38.8097 45.4953 38.4827C45.7751 38.3208 46.084 38.2158 46.4043 38.1735C46.7247 38.1312 47.0502 38.1526 47.3622 38.2364C47.6743 38.3202 47.9669 38.4648 48.2232 38.6619C48.4795 38.859 48.6946 39.1048 48.8561 39.3851L48.8544 39.3823Z" fill="white"/>
<path d="M41.3115 45.9877L43.1699 49.2135C43.3315 49.4939 43.4363 49.8034 43.4785 50.1244C43.5207 50.4454 43.4993 50.7715 43.4157 51.0843C43.3321 51.397 43.1878 51.6902 42.9911 51.947C42.7944 52.2039 42.5492 52.4194 42.2694 52.5813C41.7043 52.9082 41.0328 52.9968 40.4025 52.8276C39.7723 52.6584 39.2349 52.2452 38.9087 51.6789L37.0502 48.4532C36.7244 47.8877 36.6361 47.2156 36.8048 46.5849C36.9734 45.9541 37.3852 45.4163 37.9495 45.0898C38.2289 44.9282 38.5374 44.8233 38.8573 44.7811C39.1772 44.7389 39.5022 44.7602 39.8139 44.8439C40.1255 44.9276 40.4177 45.0719 40.6737 45.2688C40.9296 45.4656 41.1444 45.711 41.3057 45.9911L41.3115 45.9877Z" fill="white"/>
<path d="M58.3544 36.1245L60.2129 39.3502C60.3744 39.6305 60.4793 39.9401 60.5215 40.2611C60.5636 40.5821 60.5423 40.9083 60.4587 41.221C60.3751 41.5337 60.2308 41.8269 60.0341 42.0837C59.8374 42.3406 59.5922 42.5561 59.3124 42.718C58.7473 43.0449 58.0758 43.1336 57.4455 42.9643C56.8153 42.7951 56.2779 42.3819 55.9516 41.8156L54.0932 38.5899C53.7674 38.0244 53.6791 37.3523 53.8478 36.7216C54.0164 36.0909 54.4282 35.5531 54.9925 35.2266C55.2719 35.0639 55.5807 34.958 55.9011 34.9151C56.2214 34.8722 56.5471 34.893 56.8594 34.9764C57.1717 35.0598 57.4645 35.2042 57.7211 35.4012C57.9776 35.5982 58.1928 35.844 58.3544 36.1245Z" fill="white"/>
<path d="M98.9504 56.7287H91.2447V53.0738H99.4079C99.4071 52.1734 99.0498 51.3102 98.4145 50.6736C97.7792 50.0369 96.9177 49.6789 96.0193 49.678H91.2447V46.1692H98.8144C99.2638 46.1692 99.6947 45.9903 100.012 45.6719C100.33 45.3535 100.509 44.9216 100.509 44.4713C100.509 44.021 100.33 43.5892 100.012 43.2707C99.6947 42.9523 99.2638 42.7734 98.8144 42.7734H87.4482V60.1245H98.9371C99.3865 60.1245 99.8174 59.9456 100.135 59.6272C100.453 59.3088 100.631 58.8769 100.631 58.4266C100.631 57.9786 100.455 57.5487 100.14 57.2307C99.825 56.9127 99.3974 56.7322 98.9504 56.7287Z" fill="white"/>
<path d="M116.368 42.6504H112.857L105.446 60.1244H107.558C108.081 60.1223 108.592 59.9654 109.026 59.6733C109.46 59.3813 109.799 58.9672 109.999 58.483L110.914 56.2335H118.235L119.816 60.1244C120.252 60.1246 120.68 60.0167 121.064 59.8103C121.447 59.604 121.773 59.3055 122.014 58.9418C122.254 58.578 122.4 58.1603 122.44 57.7259C122.479 57.2915 122.411 56.8541 122.24 56.4528L116.368 42.6504ZM112.263 52.871L114.564 47.2224L116.862 52.8477L112.263 52.871Z" fill="white"/>
<path d="M153.878 49.7374L149.747 42.7598H145.294L151.949 53.2694V60.1108C152.959 60.1108 153.928 59.7086 154.642 58.9926C155.357 58.2767 155.758 57.3056 155.758 56.2931V53.203L162.41 42.7664H158.099L153.878 49.7374Z" fill="white"/>
<path d="M176.733 56.4461C176 56.7619 175.209 56.9171 174.412 56.9013C173.075 56.8803 171.801 56.3314 170.866 55.3738C169.93 54.4162 169.41 53.1274 169.418 51.7877V51.3989C169.418 48.4251 171.521 45.9963 174.442 45.9963C175.122 45.9937 175.797 46.1188 176.431 46.3651C177.266 46.6876 178.181 46.7442 179.049 46.5272C179.918 46.3102 180.699 45.8301 181.285 45.1523C179.677 43.5674 177.724 42.4941 174.458 42.4941C169.153 42.4941 165.43 46.5345 165.43 51.4654V51.5152C165.43 56.4993 169.216 60.44 174.309 60.44C177.651 60.44 179.614 59.2504 181.408 57.3399C180.81 56.7346 180.044 56.3251 179.209 56.1655C178.374 56.006 177.511 56.1038 176.733 56.4461Z" fill="white"/>
<path d="M196.777 42.6504H193.265L185.845 60.1244H187.957C188.48 60.1223 188.99 59.9654 189.425 59.6733C189.859 59.3813 190.197 58.9672 190.397 58.483L191.312 56.2335H198.633L200.215 60.1244C200.65 60.1246 201.079 60.0167 201.462 59.8103C201.846 59.604 202.172 59.3055 202.412 58.9418C202.652 58.578 202.799 58.1603 202.838 57.7259C202.878 57.2915 202.809 56.8541 202.639 56.4528L196.777 42.6504ZM192.672 52.871L194.97 47.2224L197.267 52.8477L192.672 52.871Z" fill="white"/>
<path d="M216.522 49.8464C213.537 49.0788 212.785 48.7067 212.785 47.567V47.5172C212.785 46.6765 213.551 46.0053 215.013 46.0053C215.902 46.0237 216.777 46.2285 217.583 46.6068C218.161 46.8658 218.811 46.9139 219.421 46.7427C220.031 46.5716 220.562 46.192 220.921 45.6698L221.492 44.8424C219.67 43.3777 217.395 42.5973 215.059 42.6361C211.525 42.6361 209.002 44.7161 209.002 47.8661V47.9159C209.002 51.3582 211.253 52.3251 214.738 53.2322C217.632 53.9765 218.226 54.4715 218.226 55.4384V55.4883C218.226 56.505 217.287 57.123 215.729 57.123C214.659 57.1234 213.604 56.8754 212.646 56.3987C211.992 56.0771 211.25 55.9842 210.538 56.1348C209.826 56.2854 209.184 56.6707 208.716 57.2294L208.309 57.7178C210.333 59.5162 212.947 60.5049 215.653 60.4956C219.39 60.4956 222.012 58.5618 222.012 55.1161V55.0663C222.026 52.0294 220.046 50.7634 216.522 49.8464Z" fill="white"/>
<path d="M239.069 42.7734V49.6414H232.046V46.5912C232.046 45.5787 231.645 44.6076 230.93 43.8916C230.216 43.1757 229.247 42.7734 228.236 42.7734V60.1245C229.247 60.1245 230.216 59.7223 230.93 59.0063C231.645 58.2903 232.046 57.3193 232.046 56.3067V53.1602H239.069V60.1378C239.569 60.1378 240.064 60.039 240.526 59.8471C240.988 59.6552 241.408 59.3739 241.761 59.0194C242.115 58.6648 242.395 58.2439 242.586 57.7808C242.777 57.3176 242.876 56.8212 242.875 56.32V46.5912C242.876 46.09 242.777 45.5936 242.586 45.1305C242.395 44.6673 242.115 44.2464 241.761 43.8918C241.408 43.5373 240.988 43.256 240.526 43.0641C240.064 42.8722 239.569 42.7734 239.069 42.7734Z" fill="white"/>
<path d="M136.126 49.8464C133.142 49.0789 132.389 48.7067 132.389 47.5671V47.5172C132.389 46.6766 133.158 46.0054 134.617 46.0054C135.507 46.024 136.384 46.2289 137.19 46.6068C137.768 46.8656 138.418 46.9136 139.027 46.7424C139.636 46.5713 140.167 46.1918 140.526 45.6698L141.096 44.8424C139.276 43.3773 137.002 42.5967 134.667 42.6362C131.129 42.6362 128.606 44.7162 128.606 47.8661V47.9159C128.606 51.3582 130.857 52.3251 134.346 53.2322C137.237 53.9765 137.83 54.4716 137.83 55.4385V55.4883C137.83 56.5051 136.892 57.1231 135.334 57.1231C134.264 57.1231 133.208 56.8752 132.25 56.3987C131.597 56.0772 130.855 55.9843 130.142 56.1348C129.43 56.2854 128.789 56.6708 128.321 57.2294L127.913 57.7179C129.939 59.517 132.554 60.5058 135.261 60.4956C138.994 60.4956 141.617 58.5618 141.617 55.1162V55.0663C141.617 52.0294 139.637 50.7635 136.126 49.8464Z" fill="white"/>
<path d="M68.0287 40.7675C67.6246 41.0015 67.2954 41.3462 67.0799 41.7612C66.8643 42.1761 66.7713 42.644 66.8119 43.11C67.1095 46.4948 66.4363 49.8943 64.8714 52.9087C63.3066 55.923 60.9153 58.4269 57.9787 60.1256C55.0422 61.8244 51.6826 62.6474 48.2952 62.4979C44.9078 62.3484 41.6334 61.2325 38.8573 59.2815C38.4745 59.0141 38.0236 58.8614 37.5574 58.8414C37.0911 58.8214 36.6289 58.9349 36.2247 59.1686C35.8663 59.3764 35.5663 59.6716 35.3525 60.0269C35.1387 60.3821 35.0181 60.7858 35.0019 61.2004C34.9857 61.6149 35.0744 62.0269 35.2598 62.3978C35.4452 62.7687 35.7212 63.0867 36.0622 63.3219C39.6024 65.8041 43.7758 67.2225 48.0924 67.4106C52.409 67.5988 56.6895 66.5488 60.4314 64.384C64.1732 62.2192 67.2211 59.0295 69.217 55.1893C71.2129 51.3492 72.074 47.0181 71.6992 42.7046C71.6666 42.291 71.5301 41.8923 71.3023 41.5458C71.0745 41.1992 70.7629 40.9161 70.3966 40.7227C70.0302 40.5294 69.6209 40.4321 69.2069 40.4399C68.7929 40.4477 68.3876 40.5604 68.0287 40.7675Z" fill="white"/>
<path d="M48.8544 39.3823L52.7139 46.0812C53.3664 47.2137 53.5432 48.5596 53.2055 49.8228C52.8677 51.086 52.043 52.163 50.9129 52.8168L44.5948 41.8506C44.2686 41.2843 44.1802 40.6114 44.3491 39.9798C44.518 39.3482 44.9303 38.8097 45.4953 38.4827C45.7751 38.3208 46.084 38.2158 46.4043 38.1735C46.7247 38.1312 47.0502 38.1526 47.3622 38.2364C47.6743 38.3202 47.9669 38.4648 48.2232 38.6619C48.4795 38.859 48.6946 39.1048 48.8561 39.3851L48.8544 39.3823Z" fill="white"/>
<path d="M41.3115 45.9877L43.1699 49.2135C43.3315 49.4939 43.4363 49.8034 43.4785 50.1244C43.5207 50.4454 43.4993 50.7715 43.4157 51.0843C43.3321 51.397 43.1878 51.6902 42.9911 51.947C42.7944 52.2039 42.5492 52.4194 42.2694 52.5813C41.7043 52.9082 41.0328 52.9968 40.4025 52.8276C39.7723 52.6584 39.2349 52.2452 38.9087 51.6789L37.0502 48.4532C36.7244 47.8877 36.6361 47.2156 36.8048 46.5849C36.9734 45.9541 37.3852 45.4163 37.9495 45.0898C38.2289 44.9282 38.5374 44.8233 38.8573 44.7811C39.1772 44.7389 39.5022 44.7602 39.8139 44.8439C40.1255 44.9276 40.4177 45.0719 40.6737 45.2688C40.9296 45.4656 41.1444 45.711 41.3057 45.9911L41.3115 45.9877Z" fill="white"/>
<path d="M58.3544 36.1245L60.2129 39.3502C60.3744 39.6305 60.4793 39.9401 60.5215 40.2611C60.5636 40.5821 60.5423 40.9083 60.4587 41.221C60.3751 41.5337 60.2308 41.8269 60.0341 42.0837C59.8374 42.3406 59.5922 42.5561 59.3124 42.718C58.7473 43.0449 58.0758 43.1336 57.4455 42.9643C56.8153 42.7951 56.2779 42.3819 55.9516 41.8156L54.0932 38.5899C53.7674 38.0244 53.6791 37.3523 53.8478 36.7216C54.0164 36.0909 54.4282 35.5531 54.9925 35.2266C55.2719 35.0639 55.5807 34.958 55.9011 34.9151C56.2214 34.8722 56.5471 34.893 56.8594 34.9764C57.1717 35.0598 57.4645 35.2042 57.7211 35.4012C57.9776 35.5982 58.1928 35.844 58.3544 36.1245Z" fill="white"/>
<path d="M98.9504 56.7287H91.2447V53.0738H99.4079C99.4071 52.1734 99.0498 51.3102 98.4145 50.6736C97.7792 50.0369 96.9177 49.6789 96.0193 49.678H91.2447V46.1692H98.8144C99.2638 46.1692 99.6947 45.9903 100.012 45.6719C100.33 45.3535 100.509 44.9216 100.509 44.4713C100.509 44.021 100.33 43.5892 100.012 43.2707C99.6947 42.9523 99.2638 42.7734 98.8144 42.7734H87.4482V60.1245H98.9371C99.3865 60.1245 99.8174 59.9456 100.135 59.6272C100.453 59.3088 100.631 58.8769 100.631 58.4266C100.631 57.9786 100.455 57.5487 100.14 57.2307C99.825 56.9127 99.3974 56.7322 98.9504 56.7287Z" fill="white"/>
<path d="M116.368 42.6504H112.857L105.446 60.1244H107.558C108.081 60.1223 108.592 59.9654 109.026 59.6733C109.46 59.3813 109.799 58.9672 109.999 58.483L110.914 56.2335H118.235L119.816 60.1244C120.252 60.1246 120.68 60.0167 121.064 59.8103C121.447 59.604 121.773 59.3055 122.014 58.9418C122.254 58.578 122.4 58.1603 122.44 57.7259C122.479 57.2915 122.411 56.8541 122.24 56.4528L116.368 42.6504ZM112.263 52.871L114.564 47.2224L116.862 52.8477L112.263 52.871Z" fill="white"/>
<path d="M153.878 49.7374L149.747 42.7598H145.294L151.949 53.2694V60.1108C152.959 60.1108 153.928 59.7086 154.642 58.9926C155.357 58.2767 155.758 57.3056 155.758 56.2931V53.203L162.41 42.7664H158.099L153.878 49.7374Z" fill="white"/>
<path d="M176.733 56.4461C176 56.7619 175.209 56.9171 174.412 56.9013C173.075 56.8803 171.801 56.3314 170.866 55.3738C169.93 54.4162 169.41 53.1274 169.418 51.7877V51.3989C169.418 48.4251 171.521 45.9963 174.442 45.9963C175.122 45.9937 175.797 46.1188 176.431 46.3651C177.266 46.6876 178.181 46.7442 179.049 46.5272C179.918 46.3102 180.699 45.8301 181.285 45.1523C179.677 43.5674 177.724 42.4941 174.458 42.4941C169.153 42.4941 165.43 46.5345 165.43 51.4654V51.5152C165.43 56.4993 169.216 60.44 174.309 60.44C177.651 60.44 179.614 59.2504 181.408 57.3399C180.81 56.7346 180.044 56.3251 179.209 56.1655C178.374 56.006 177.511 56.1038 176.733 56.4461Z" fill="white"/>
<path d="M196.777 42.6504H193.265L185.845 60.1244H187.957C188.48 60.1223 188.99 59.9654 189.425 59.6733C189.859 59.3813 190.197 58.9672 190.397 58.483L191.312 56.2335H198.633L200.215 60.1244C200.65 60.1246 201.079 60.0167 201.462 59.8103C201.846 59.604 202.172 59.3055 202.412 58.9418C202.652 58.578 202.799 58.1603 202.838 57.7259C202.878 57.2915 202.809 56.8541 202.639 56.4528L196.777 42.6504ZM192.672 52.871L194.97 47.2224L197.267 52.8477L192.672 52.871Z" fill="white"/>
<path d="M216.522 49.8464C213.537 49.0788 212.785 48.7067 212.785 47.567V47.5172C212.785 46.6765 213.551 46.0053 215.013 46.0053C215.902 46.0237 216.777 46.2285 217.583 46.6068C218.161 46.8658 218.811 46.9139 219.421 46.7427C220.031 46.5716 220.562 46.192 220.921 45.6698L221.492 44.8424C219.67 43.3777 217.395 42.5973 215.059 42.6361C211.525 42.6361 209.002 44.7161 209.002 47.8661V47.9159C209.002 51.3582 211.253 52.3251 214.738 53.2322C217.632 53.9765 218.226 54.4715 218.226 55.4384V55.4883C218.226 56.505 217.287 57.123 215.729 57.123C214.659 57.1234 213.604 56.8754 212.646 56.3987C211.992 56.0771 211.25 55.9842 210.538 56.1348C209.826 56.2854 209.184 56.6707 208.716 57.2294L208.309 57.7178C210.333 59.5162 212.947 60.5049 215.653 60.4956C219.39 60.4956 222.012 58.5618 222.012 55.1161V55.0663C222.026 52.0294 220.046 50.7634 216.522 49.8464Z" fill="white"/>
<path d="M239.069 42.7734V49.6414H232.046V46.5912C232.046 45.5787 231.645 44.6076 230.93 43.8916C230.216 43.1757 229.247 42.7734 228.236 42.7734V60.1245C229.247 60.1245 230.216 59.7223 230.93 59.0063C231.645 58.2903 232.046 57.3193 232.046 56.3067V53.1602H239.069V60.1378C239.569 60.1378 240.064 60.039 240.526 59.8471C240.988 59.6552 241.408 59.3739 241.761 59.0194C242.115 58.6648 242.395 58.2439 242.586 57.7808C242.777 57.3176 242.876 56.8212 242.875 56.32V46.5912C242.876 46.09 242.777 45.5936 242.586 45.1305C242.395 44.6673 242.115 44.2464 241.761 43.8918C241.408 43.5373 240.988 43.256 240.526 43.0641C240.064 42.8722 239.569 42.7734 239.069 42.7734Z" fill="white"/>
<path d="M136.126 49.8464C133.142 49.0789 132.389 48.7067 132.389 47.5671V47.5172C132.389 46.6766 133.158 46.0054 134.617 46.0054C135.507 46.024 136.384 46.2289 137.19 46.6068C137.768 46.8656 138.418 46.9136 139.027 46.7424C139.636 46.5713 140.167 46.1918 140.526 45.6698L141.096 44.8424C139.276 43.3773 137.002 42.5967 134.667 42.6362C131.129 42.6362 128.606 44.7162 128.606 47.8661V47.9159C128.606 51.3582 130.857 52.3251 134.346 53.2322C137.237 53.9765 137.83 54.4716 137.83 55.4385V55.4883C137.83 56.5051 136.892 57.1231 135.334 57.1231C134.264 57.1231 133.208 56.8752 132.25 56.3987C131.597 56.0772 130.855 55.9843 130.142 56.1348C129.43 56.2854 128.789 56.6708 128.321 57.2294L127.913 57.7179C129.939 59.517 132.554 60.5058 135.261 60.4956C138.994 60.4956 141.617 58.5618 141.617 55.1162V55.0663C141.617 52.0294 139.637 50.7635 136.126 49.8464Z" fill="white"/>
<g clip-path="url(#clip0_4910_1237)">
<path d="M280.594 42.2969V36.8038H282.655C282.934 36.7979 283.212 36.8161 283.487 36.8584C283.727 36.8968 283.957 36.9833 284.162 37.1127C284.351 37.2501 284.503 37.4335 284.602 37.6457C284.712 37.8805 284.768 38.1372 284.765 38.3966C284.778 38.8329 284.62 39.2568 284.325 39.5776C284.105 39.7645 283.849 39.9044 283.574 39.9887C283.298 40.0731 283.008 40.1001 282.722 40.0682H281.317V42.2969H280.594ZM281.317 39.4202H282.728C283.082 39.4528 283.437 39.3584 283.728 39.1537C283.827 39.0592 283.905 38.9442 283.955 38.8165C284.005 38.6888 284.026 38.5517 284.018 38.4148C284.029 38.1999 283.969 37.9872 283.849 37.8092C283.737 37.6515 283.576 37.5362 283.391 37.4821C283.168 37.4425 282.942 37.4262 282.716 37.4337H281.317V39.4202Z" fill="white"/>
<path d="M287.085 42.2958V37.4508H285.312V36.8027H289.647V37.4508H287.838V42.2958H287.085Z" fill="white"/>
<path d="M292.459 42.2958V36.8027H293.182V42.2958H292.459Z" fill="white"/>
<path d="M294.347 42.2897V38.3107H294.949V38.88C295.084 38.6691 295.271 38.4972 295.492 38.3814C295.713 38.2656 295.96 38.2099 296.209 38.2199C296.435 38.2195 296.659 38.2649 296.866 38.3531C297.045 38.4234 297.201 38.5405 297.319 38.6923C297.421 38.8412 297.491 39.0105 297.523 39.1889C297.553 39.4056 297.565 39.6243 297.56 39.843V42.2655H296.915V39.843C296.924 39.638 296.897 39.433 296.836 39.2373C296.784 39.0993 296.686 38.9837 296.559 38.9103C296.416 38.8279 296.253 38.786 296.089 38.7892C295.818 38.7842 295.556 38.8814 295.353 39.0617C295.232 39.2027 295.141 39.3677 295.087 39.5461C295.033 39.7245 295.017 39.9123 295.04 40.0973V42.2715L294.347 42.2897Z" fill="white"/>
<path d="M301.185 42.2958V41.7992C301.075 41.9923 300.913 42.151 300.719 42.2579C300.524 42.3647 300.304 42.4156 300.082 42.4048C299.772 42.408 299.467 42.3173 299.208 42.1444C298.943 41.9621 298.734 41.7081 298.605 41.4116C298.455 41.0705 298.381 40.7004 298.388 40.3275C298.375 39.9536 298.437 39.5809 298.569 39.2313C298.689 38.9264 298.899 38.6662 299.172 38.4864C299.436 38.3151 299.744 38.2247 300.058 38.226C300.269 38.2277 300.476 38.2818 300.661 38.3834C300.843 38.4755 301 38.6105 301.119 38.7771V36.8027H301.788V42.2958H301.185ZM299.064 40.3093C299.032 40.7177 299.147 41.124 299.389 41.454C299.477 41.5711 299.591 41.6664 299.722 41.7325C299.852 41.7987 299.996 41.8339 300.142 41.8355C300.286 41.836 300.428 41.8035 300.558 41.7406C300.688 41.6776 300.801 41.5858 300.89 41.4721C301.118 41.1525 301.227 40.7622 301.198 40.3699C301.235 39.9419 301.125 39.5139 300.884 39.1586C300.795 39.0379 300.678 38.94 300.544 38.8727C300.41 38.8054 300.262 38.7706 300.112 38.771C299.968 38.7696 299.826 38.8017 299.696 38.8647C299.567 38.9277 299.453 39.02 299.365 39.1344C299.133 39.4798 299.027 39.8946 299.064 40.3093Z" fill="white"/>
<path d="M302.612 40.3029C302.586 40.0016 302.627 39.6982 302.731 39.4145C302.835 39.1308 303 38.8737 303.215 38.6616C303.561 38.3662 304.003 38.2088 304.457 38.2195C304.706 38.2123 304.954 38.257 305.186 38.3508C305.417 38.4446 305.626 38.5855 305.801 38.7646C305.981 38.9665 306.119 39.2019 306.208 39.4576C306.297 39.7133 306.335 39.984 306.319 40.2544C306.339 40.6707 306.26 41.0857 306.09 41.4657C305.937 41.7535 305.705 41.9911 305.421 42.15C305.128 42.3136 304.798 42.3971 304.463 42.3923C304.214 42.4011 303.967 42.3583 303.735 42.2666C303.504 42.1749 303.294 42.0362 303.118 41.8593C302.753 41.4273 302.571 40.8683 302.612 40.3029ZM303.305 40.3029C303.274 40.7122 303.392 41.1191 303.637 41.4475C303.74 41.5678 303.867 41.6644 304.011 41.7306C304.155 41.7968 304.311 41.8311 304.469 41.8311C304.627 41.8311 304.783 41.7968 304.926 41.7306C305.07 41.6644 305.198 41.5678 305.301 41.4475C305.548 41.113 305.665 40.6998 305.632 40.2847C305.661 39.8831 305.543 39.4847 305.301 39.1643C305.2 39.04 305.073 38.9398 304.929 38.8706C304.786 38.8015 304.628 38.7653 304.469 38.7646C304.311 38.7602 304.154 38.7917 304.01 38.8567C303.866 38.9217 303.738 39.0186 303.637 39.1401C303.387 39.4733 303.269 39.8874 303.305 40.3029Z" fill="white"/>
<path d="M307.117 42.2899V38.3109H307.72V38.8802C307.854 38.6688 308.041 38.4966 308.262 38.3807C308.483 38.2649 308.731 38.2095 308.98 38.22C309.206 38.2197 309.429 38.265 309.637 38.3533C309.815 38.4217 309.969 38.5393 310.083 38.6924C310.188 38.8409 310.26 39.0102 310.294 39.189C310.324 39.4057 310.336 39.6245 310.33 39.8431V42.2656H309.667V39.8431C309.674 39.6383 309.647 39.4338 309.589 39.2375C309.537 39.0994 309.439 38.9838 309.311 38.9105C309.169 38.828 309.006 38.7862 308.841 38.7893C308.569 38.7851 308.305 38.8822 308.1 39.0619C307.981 39.2041 307.892 39.3694 307.839 39.5476C307.786 39.7257 307.77 39.9129 307.792 40.0975V42.2717L307.117 42.2899Z" fill="white"/>
<path d="M314.078 41.0141L314.772 41.0989C314.681 41.4725 314.469 41.805 314.169 42.0436C313.844 42.2862 313.447 42.4121 313.042 42.401C312.787 42.4141 312.532 42.3729 312.294 42.2799C312.056 42.187 311.84 42.0446 311.661 41.862C311.302 41.4454 311.12 40.9039 311.155 40.3539C311.108 39.7795 311.287 39.2095 311.655 38.7672C311.826 38.5836 312.033 38.4389 312.264 38.3428C312.495 38.2467 312.744 38.2014 312.993 38.21C313.236 38.2028 313.477 38.2477 313.7 38.3417C313.924 38.4357 314.125 38.5767 314.289 38.7551C314.645 39.1828 314.824 39.7311 314.79 40.2873V40.463H311.836C311.833 40.8319 311.963 41.1894 312.204 41.4683C312.309 41.5817 312.437 41.6715 312.579 41.732C312.722 41.7926 312.875 41.8224 313.03 41.8196C313.247 41.8192 313.458 41.7491 313.632 41.6197C313.839 41.468 313.994 41.2568 314.078 41.0141ZM311.872 39.9239H314.084C314.077 39.6519 313.989 39.3882 313.831 39.1669C313.733 39.0403 313.606 38.9384 313.462 38.869C313.318 38.7997 313.159 38.7648 312.999 38.7672C312.856 38.7638 312.713 38.7893 312.579 38.8424C312.446 38.8954 312.324 38.9749 312.222 39.0761C312.002 39.3038 311.877 39.607 311.872 39.9239Z" fill="white"/>
<path d="M315.336 41.1019L315.999 40.9989C316.02 41.2344 316.133 41.4521 316.312 41.6045C316.521 41.7389 316.764 41.8103 317.012 41.8103C317.26 41.8103 317.502 41.7389 317.711 41.6045C317.78 41.5531 317.835 41.4865 317.874 41.4098C317.913 41.3331 317.933 41.2484 317.934 41.1624C317.935 41.0905 317.918 41.0195 317.883 40.9567C317.848 40.8939 317.797 40.8416 317.735 40.8051C317.517 40.7002 317.286 40.6249 317.048 40.581C316.707 40.5078 316.372 40.4065 316.047 40.2782C315.869 40.1988 315.718 40.0682 315.613 39.9027C315.509 39.7441 315.451 39.5597 315.444 39.3698C315.443 39.1968 315.485 39.0263 315.565 38.8732C315.647 38.7252 315.76 38.5971 315.896 38.4977C316.027 38.4096 316.172 38.3441 316.324 38.3039C316.52 38.2449 316.723 38.2163 316.927 38.2191C317.207 38.2143 317.485 38.2615 317.747 38.3584C317.951 38.4264 318.131 38.5527 318.265 38.7218C318.382 38.9183 318.449 39.141 318.458 39.3698L317.801 39.4606C317.781 39.2712 317.688 39.0973 317.542 38.9761C317.365 38.8555 317.153 38.796 316.939 38.8065C316.71 38.7861 316.48 38.8391 316.282 38.9579C316.222 38.9979 316.173 39.0519 316.139 39.1151C316.104 39.1784 316.085 39.2491 316.083 39.3213C316.085 39.4073 316.114 39.4904 316.168 39.5575C316.234 39.6394 316.321 39.7004 316.421 39.7331C316.487 39.7634 316.686 39.8179 317.024 39.9088C317.362 39.9921 317.694 40.0973 318.018 40.2237C318.204 40.2932 318.363 40.4207 318.471 40.5875C318.58 40.7542 318.632 40.9514 318.621 41.1503C318.616 41.3667 318.549 41.577 318.428 41.756C318.288 41.9616 318.091 42.1216 317.862 42.2162C317.599 42.3284 317.315 42.3841 317.03 42.3798C316.603 42.4127 316.178 42.2995 315.824 42.0588C315.55 41.8106 315.377 41.4701 315.336 41.1019Z" fill="white"/>
<path d="M319.425 37.5598V36.8027H320.1V37.5598H319.425ZM319.425 42.2776V38.3168H320.1V42.2958L319.425 42.2776Z" fill="white"/>
<path d="M323.703 41.793C323.492 41.9836 323.249 42.1353 322.986 42.2411C322.749 42.3323 322.498 42.3775 322.245 42.3744C321.883 42.3983 321.525 42.2836 321.244 42.0534C321.126 41.9542 321.031 41.83 320.967 41.6897C320.902 41.5494 320.869 41.3964 320.87 41.2419C320.868 41.0564 320.911 40.8732 320.997 40.7089C321.08 40.553 321.2 40.4199 321.346 40.3213C321.495 40.2226 321.658 40.1471 321.829 40.0972C322.028 40.054 322.229 40.0216 322.431 40.0003C322.84 39.9618 323.244 39.8827 323.637 39.7641V39.5885C323.652 39.48 323.643 39.3695 323.61 39.2649C323.578 39.1603 323.523 39.064 323.45 38.9829C323.228 38.8187 322.954 38.7412 322.679 38.7648C322.434 38.7467 322.19 38.8038 321.979 38.9284C321.803 39.0861 321.686 39.2999 321.648 39.534L320.991 39.4431C321.041 39.1955 321.148 38.9632 321.304 38.7648C321.46 38.5728 321.67 38.4333 321.907 38.3651C322.195 38.263 322.5 38.2137 322.805 38.2198C323.085 38.2116 323.365 38.2526 323.631 38.3409C323.81 38.3985 323.97 38.5031 324.095 38.6437C324.2 38.7789 324.272 38.9364 324.306 39.104C324.32 39.3056 324.32 39.508 324.306 39.7096V40.6059C324.297 41.0102 324.311 41.4146 324.348 41.8172C324.377 41.9851 324.434 42.1469 324.517 42.2957H323.836C323.762 42.1375 323.717 41.9672 323.703 41.793ZM323.649 40.291C323.293 40.4145 322.926 40.4998 322.552 40.5454C322.346 40.5637 322.144 40.6085 321.949 40.6786C321.84 40.7217 321.748 40.7979 321.684 40.8966C321.62 40.9912 321.586 41.1032 321.588 41.2176C321.586 41.3031 321.603 41.3878 321.638 41.4655C321.674 41.5431 321.727 41.6116 321.792 41.6658C321.963 41.8005 322.179 41.8654 322.395 41.8475C322.635 41.8503 322.871 41.7919 323.082 41.6779C323.274 41.5705 323.429 41.4081 323.529 41.2116C323.612 40.9957 323.649 40.7645 323.637 40.5333L323.649 40.291Z" fill="white"/>
<path d="M327.614 42.2958V36.8027H331.303V37.4507H328.338V39.1526H330.906V39.8006H328.338V42.2958H327.614Z" fill="white"/>
<path d="M332.156 37.5598V36.8027H332.831V37.5598H332.156ZM332.156 42.2776V38.3168H332.831V42.2958L332.156 42.2776Z" fill="white"/>
<path d="M333.856 42.2896V38.3106H334.459V38.8799C334.594 38.6694 334.781 38.4979 335.002 38.3821C335.223 38.2664 335.47 38.2104 335.719 38.2198C335.947 38.2194 336.172 38.2647 336.382 38.353C336.56 38.4214 336.714 38.539 336.828 38.6922C336.933 38.8406 337.005 39.01 337.039 39.1888C337.069 39.4054 337.081 39.6242 337.075 39.8428V42.2654H336.406V39.8428C336.413 39.6381 336.386 39.4336 336.328 39.2372C336.276 39.0992 336.178 38.9836 336.051 38.9102C335.908 38.8283 335.745 38.7865 335.58 38.7891C335.308 38.7837 335.044 38.8809 334.839 39.0616C334.719 39.2033 334.629 39.3685 334.575 39.5466C334.521 39.7248 334.504 39.9122 334.526 40.0972V42.2714L333.856 42.2896Z" fill="white"/>
<path d="M339.558 41.696L339.655 42.3016C339.489 42.3397 339.319 42.36 339.149 42.3622C338.953 42.3742 338.757 42.3346 338.582 42.2471C338.454 42.1814 338.353 42.0718 338.298 41.9382C338.226 41.6804 338.198 41.4122 338.214 41.1449V38.8435H337.75V38.3166H338.244V37.3355L338.913 36.9297V38.3166H339.558V38.8435H338.883V41.1933C338.875 41.3176 338.887 41.4424 338.919 41.5627C338.942 41.6187 338.982 41.6655 339.034 41.696C339.105 41.7315 339.184 41.7482 339.263 41.7444C339.362 41.7356 339.461 41.7194 339.558 41.696Z" fill="white"/>
<path d="M339.969 40.3035C339.943 40.0022 339.983 39.6988 340.087 39.4151C340.191 39.1314 340.357 38.8743 340.571 38.6622C340.917 38.3668 341.359 38.2094 341.813 38.2201C342.066 38.2103 342.317 38.2538 342.552 38.3477C342.786 38.4416 342.999 38.5838 343.175 38.7652C343.355 38.967 343.493 39.2026 343.582 39.4582C343.671 39.7139 343.709 39.9846 343.694 40.255C343.713 40.6712 343.635 41.0863 343.465 41.4663C343.312 41.7541 343.079 41.9917 342.796 42.1506C342.503 42.3134 342.172 42.3969 341.837 42.3929C341.589 42.4017 341.341 42.3589 341.11 42.2672C340.879 42.1755 340.669 42.0368 340.493 41.8599C340.121 41.4307 339.933 40.8714 339.969 40.3035ZM340.662 40.3035C340.63 40.7128 340.748 41.1197 340.993 41.4481C341.096 41.5684 341.224 41.665 341.368 41.7312C341.511 41.7974 341.667 41.8317 341.825 41.8317C341.983 41.8317 342.139 41.7974 342.283 41.7312C342.426 41.665 342.554 41.5684 342.657 41.4481C342.904 41.1136 343.022 40.7004 342.989 40.2853C343.018 39.8837 342.9 39.4853 342.657 39.1649C342.554 39.0451 342.426 38.9494 342.283 38.8845C342.139 38.8196 341.983 38.7872 341.825 38.7894C341.667 38.785 341.51 38.8165 341.367 38.8815C341.223 38.9466 341.095 39.0434 340.993 39.1649C340.75 39.4917 340.632 39.8962 340.662 40.3035Z" fill="white"/>
<path d="M344.464 43.8152V38.3101H345.067V38.8309C345.192 38.6431 345.359 38.4876 345.555 38.3767C345.756 38.2673 345.983 38.213 346.212 38.2192C346.531 38.2144 346.845 38.3073 347.11 38.4857C347.38 38.6662 347.59 38.9235 347.713 39.2246C347.848 39.557 347.916 39.9132 347.912 40.2723C347.916 40.6495 347.84 41.0232 347.689 41.3685C347.567 41.6735 347.357 41.9349 347.086 42.1195C346.821 42.3004 346.508 42.3974 346.188 42.3981C345.979 42.4 345.772 42.3523 345.585 42.2588C345.418 42.168 345.27 42.0445 345.151 41.8954V43.8334L344.464 43.8152ZM345.067 40.3268C345.035 40.7288 345.144 41.1293 345.374 41.4594C345.464 41.5762 345.579 41.6708 345.71 41.736C345.842 41.8011 345.987 41.835 346.134 41.835C346.28 41.835 346.425 41.8011 346.557 41.736C346.689 41.6708 346.804 41.5762 346.893 41.4594C347.139 41.1064 347.252 40.6771 347.213 40.2481C347.237 39.8441 347.127 39.4434 346.899 39.1095C346.812 39.0039 346.704 38.9183 346.581 38.8588C346.458 38.7992 346.324 38.767 346.188 38.7643C346.039 38.7671 345.893 38.8047 345.761 38.8741C345.629 38.9434 345.515 39.0427 345.428 39.164C345.18 39.499 345.055 39.9097 345.073 40.3268H345.067Z" fill="white"/>
<path d="M348.721 37.5598V36.8027H349.396V37.5598H348.721ZM348.721 42.2776V38.3168H349.396V42.2958L348.721 42.2776Z" fill="white"/>
<path d="M352.991 41.793C352.78 41.9836 352.537 42.1353 352.274 42.2411C352.037 42.3323 351.786 42.3775 351.532 42.3744C351.17 42.3983 350.813 42.2836 350.532 42.0534C350.417 41.9515 350.325 41.8255 350.264 41.6843C350.202 41.543 350.172 41.3899 350.176 41.2358C350.176 41.0498 350.221 40.8667 350.309 40.7028C350.392 40.5469 350.512 40.4138 350.658 40.3152C350.807 40.2165 350.97 40.141 351.141 40.0912C351.34 40.0479 351.541 40.0156 351.743 39.9943C352.152 39.9558 352.556 39.8766 352.949 39.7581V39.5824C352.964 39.4739 352.955 39.3634 352.922 39.2588C352.89 39.1542 352.835 39.0579 352.762 38.9768C352.542 38.8119 352.27 38.7323 351.997 38.7527C351.752 38.7346 351.508 38.7916 351.297 38.9162C351.119 39.0731 351 39.287 350.96 39.5219L350.309 39.431C350.35 39.1908 350.445 38.9631 350.586 38.7648C350.744 38.5759 350.954 38.437 351.189 38.3651C351.477 38.263 351.781 38.2137 352.087 38.2198C352.367 38.2116 352.647 38.2526 352.913 38.3409C353.091 38.4001 353.251 38.5044 353.377 38.6437C353.481 38.7789 353.553 38.9364 353.588 39.104C353.601 39.3056 353.601 39.508 353.588 39.7096V40.6059C353.576 41.0102 353.59 41.4148 353.63 41.8172C353.659 41.9851 353.716 42.1469 353.799 42.2957H353.1C353.034 42.1359 352.997 41.9657 352.991 41.793ZM352.937 40.291C352.581 40.4145 352.214 40.4998 351.84 40.5454C351.634 40.5637 351.432 40.6085 351.237 40.6786C351.128 40.7217 351.035 40.7979 350.972 40.8966C350.908 40.9912 350.874 41.1032 350.875 41.2176C350.873 41.3031 350.891 41.3878 350.926 41.4655C350.962 41.5431 351.015 41.6116 351.08 41.6658C351.251 41.8005 351.467 41.8654 351.683 41.8475C351.923 41.8495 352.159 41.7912 352.37 41.6779C352.562 41.5705 352.717 41.4081 352.816 41.2116C352.9 40.9957 352.937 40.7645 352.925 40.5333L352.937 40.291Z" fill="white"/>
<path d="M358.118 42.2958V37.4508H356.31V36.8027H360.656V37.4508H358.847V42.2958H358.118Z" fill="white"/>
<path d="M363.166 41.0118L363.86 41.0966C363.771 41.4711 363.559 41.8043 363.257 42.0414C362.876 42.2928 362.423 42.4096 361.969 42.3734C361.515 42.3372 361.086 42.1501 360.749 41.8415C360.569 41.6364 360.431 41.3976 360.343 41.1388C360.255 40.88 360.219 40.6064 360.237 40.3335C360.203 39.7669 360.389 39.2092 360.755 38.777C360.924 38.5933 361.131 38.4484 361.361 38.3522C361.591 38.2561 361.838 38.2109 362.087 38.2199C362.33 38.2115 362.571 38.2558 362.795 38.3499C363.018 38.444 363.219 38.5856 363.383 38.7649C363.743 39.1905 363.925 39.7398 363.89 40.2972C363.89 40.3335 363.89 40.3941 363.89 40.4728H360.936C360.936 40.8412 361.066 41.1975 361.304 41.4781C361.41 41.5914 361.54 41.6811 361.683 41.7416C361.826 41.802 361.98 41.8319 362.136 41.8294C362.353 41.8303 362.564 41.7601 362.738 41.6295C362.94 41.472 363.089 41.2566 363.166 41.0118ZM360.96 39.9217H363.172C363.165 39.6496 363.077 39.3859 362.919 39.1646C362.82 39.0392 362.694 38.9388 362.549 38.8715C362.405 38.8042 362.246 38.7718 362.087 38.777C361.944 38.7736 361.801 38.7992 361.667 38.8522C361.534 38.9053 361.412 38.9847 361.31 39.0859C361.093 39.3106 360.968 39.6089 360.96 39.9217Z" fill="white"/>
<path d="M367.285 40.8369L367.942 40.9217C367.891 41.3341 367.694 41.7144 367.388 41.9936C367.085 42.2553 366.696 42.3936 366.297 42.3812C366.053 42.3925 365.81 42.3507 365.584 42.2587C365.359 42.1667 365.155 42.0267 364.988 41.8483C364.634 41.4206 364.456 40.8717 364.494 40.3161C364.487 39.93 364.559 39.5465 364.705 39.1896C364.835 38.8828 365.062 38.6275 365.35 38.4628C365.641 38.3036 365.966 38.2203 366.297 38.2206C366.676 38.2024 367.05 38.3205 367.352 38.5537C367.636 38.7851 367.824 39.116 367.876 39.4803L367.225 39.5832C367.184 39.3503 367.067 39.1375 366.893 38.9776C366.735 38.8434 366.534 38.7723 366.327 38.7778C366.171 38.772 366.015 38.8016 365.872 38.8645C365.729 38.9275 365.602 39.022 365.501 39.1411C365.262 39.4768 365.149 39.8865 365.181 40.2979C365.148 40.7113 365.257 41.1238 365.489 41.4667C365.585 41.5842 365.707 41.678 365.845 41.7409C365.983 41.8039 366.133 41.8344 366.284 41.8301C366.529 41.8372 366.767 41.7482 366.948 41.5818C367.143 41.3804 367.262 41.117 367.285 40.8369Z" fill="white"/>
<path d="M368.52 42.2958V36.8027H369.195V38.771C369.34 38.5926 369.525 38.4502 369.734 38.3546C369.943 38.2591 370.171 38.213 370.4 38.2199C370.666 38.2143 370.929 38.2746 371.166 38.3955C371.371 38.4987 371.535 38.6698 371.63 38.88C371.738 39.1638 371.785 39.4671 371.769 39.7703V42.2897H371.099V39.7764C371.123 39.5114 371.045 39.2474 370.882 39.0375C370.803 38.9602 370.708 38.8999 370.605 38.8604C370.501 38.8208 370.39 38.8028 370.28 38.8074C370.082 38.8079 369.888 38.8623 369.719 38.9648C369.551 39.0608 369.42 39.2099 369.345 39.3888C369.263 39.6239 369.226 39.8726 369.237 40.1216V42.2958H368.52Z" fill="white"/>
<path d="M372.776 42.2897V38.3107H373.379V38.88C373.514 38.6691 373.701 38.4972 373.922 38.3814C374.143 38.2656 374.39 38.2099 374.639 38.2199C374.865 38.2189 375.088 38.2642 375.296 38.3531C375.474 38.4234 375.631 38.5405 375.748 38.6923C375.851 38.8412 375.921 39.0105 375.953 39.1889C375.989 39.4049 376.003 39.6241 375.995 39.843V42.2655H375.32V39.843C375.33 39.638 375.303 39.433 375.242 39.2373C375.192 39.0979 375.094 38.9816 374.965 38.9103C374.824 38.8287 374.663 38.7868 374.5 38.7892C374.228 38.7826 373.963 38.88 373.759 39.0617C373.638 39.2027 373.547 39.3677 373.493 39.5461C373.439 39.7245 373.423 39.9123 373.445 40.0973V42.2715L372.776 42.2897Z" fill="white"/>
<path d="M376.765 40.3026C376.74 40.0014 376.781 39.6984 376.885 39.4149C376.989 39.1313 377.154 38.8741 377.368 38.6613C377.716 38.3665 378.16 38.2093 378.615 38.2192C378.862 38.2145 379.106 38.2604 379.334 38.3541C379.562 38.4479 379.769 38.5874 379.941 38.7643C380.123 38.9652 380.262 39.2006 380.351 39.4565C380.44 39.7124 380.477 39.9836 380.46 40.2541C380.482 40.6705 380.404 41.0862 380.231 41.4654C380.082 41.7543 379.851 41.9924 379.568 42.1497C379.274 42.3117 378.944 42.3951 378.609 42.392C378.361 42.4008 378.113 42.358 377.882 42.2663C377.651 42.1746 377.441 42.0359 377.265 41.859C377.084 41.6455 376.946 41.398 376.86 41.1309C376.775 40.8638 376.742 40.5823 376.765 40.3026ZM377.452 40.3026C377.423 40.7116 377.541 41.1176 377.784 41.4472C377.887 41.5677 378.015 41.6643 378.159 41.7306C378.303 41.7968 378.46 41.8311 378.618 41.8311C378.777 41.8311 378.933 41.7968 379.077 41.7306C379.222 41.6643 379.35 41.5677 379.453 41.4472C379.7 41.1127 379.818 40.6995 379.785 40.2844C379.811 39.8831 379.693 39.4857 379.453 39.164C379.35 39.0442 379.222 38.9485 379.079 38.8836C378.935 38.8187 378.779 38.7863 378.621 38.7885C378.463 38.7841 378.305 38.8155 378.16 38.8805C378.015 38.9455 377.886 39.0424 377.784 39.164C377.542 39.492 377.425 39.8955 377.452 40.3026Z" fill="white"/>
<path d="M381.25 42.2958V36.8027H381.925V42.2958H381.25Z" fill="white"/>
<path d="M382.712 40.3027C382.687 40.0015 382.728 39.6985 382.833 39.415C382.937 39.1315 383.101 38.8743 383.315 38.6614C383.664 38.3666 384.107 38.2094 384.563 38.2193C384.81 38.213 385.055 38.2576 385.284 38.3503C385.513 38.443 385.721 38.5819 385.895 38.7583C386.076 38.9593 386.215 39.1947 386.304 39.4506C386.393 39.7064 386.43 39.9777 386.413 40.2482C386.436 40.6646 386.357 41.0803 386.184 41.4595C386.035 41.7484 385.805 41.9865 385.521 42.1438C385.228 42.3058 384.898 42.3892 384.563 42.3861C384.314 42.3948 384.067 42.3521 383.835 42.2604C383.604 42.1687 383.394 42.03 383.218 41.8531C383.037 41.6408 382.899 41.3945 382.812 41.1285C382.725 40.8625 382.691 40.5819 382.712 40.3027ZM383.399 40.3027C383.371 40.7118 383.488 41.1177 383.731 41.4473C383.834 41.5678 383.963 41.6645 384.107 41.7307C384.251 41.797 384.407 41.8313 384.566 41.8313C384.724 41.8313 384.881 41.797 385.025 41.7307C385.169 41.6645 385.297 41.5678 385.401 41.4473C385.648 41.1128 385.765 40.6997 385.732 40.2845C385.758 39.8833 385.641 39.4858 385.401 39.1641C385.298 39.0443 385.17 38.9486 385.026 38.8837C384.882 38.8189 384.726 38.7864 384.569 38.7886C384.41 38.7842 384.252 38.8157 384.107 38.8807C383.962 38.9457 383.834 39.0425 383.731 39.1641C383.489 39.4921 383.372 39.8957 383.399 40.3027Z" fill="white"/>
<path d="M387.091 42.6244L387.742 42.7213C387.748 42.8062 387.771 42.8891 387.809 42.965C387.848 43.041 387.901 43.1084 387.966 43.1634C388.169 43.2966 388.41 43.3622 388.653 43.3511C388.905 43.3658 389.157 43.3001 389.37 43.1634C389.541 43.0324 389.662 42.8464 389.714 42.6365C389.758 42.3501 389.774 42.06 389.762 41.7704C389.631 41.9361 389.464 42.0693 389.274 42.1597C389.084 42.25 388.875 42.295 388.665 42.2912C388.421 42.302 388.177 42.2524 387.957 42.1468C387.736 42.0412 387.545 41.8829 387.399 41.6856C387.097 41.2762 386.94 40.7775 386.953 40.2684C386.951 39.909 387.021 39.5527 387.158 39.2207C387.282 38.9187 387.492 38.6598 387.761 38.4758C388.032 38.2956 388.352 38.2027 388.677 38.2093C388.9 38.2079 389.121 38.2586 389.322 38.3573C389.523 38.4561 389.698 38.6003 389.834 38.7786V38.3002H390.437V41.7401C390.465 42.1884 390.402 42.6378 390.25 43.0604C390.116 43.3197 389.905 43.5311 389.647 43.666C389.335 43.8227 388.989 43.8997 388.641 43.8901C388.235 43.9074 387.834 43.795 387.495 43.5691C387.355 43.4583 387.244 43.3137 387.173 43.1486C387.103 42.9835 387.075 42.8032 387.091 42.6244ZM387.646 40.2321C387.612 40.638 387.721 41.043 387.954 41.3768C388.049 41.4892 388.168 41.5795 388.302 41.6415C388.435 41.7034 388.581 41.7355 388.728 41.7355C388.875 41.7355 389.021 41.7034 389.155 41.6415C389.288 41.5795 389.407 41.4892 389.503 41.3768C389.709 41.0433 389.819 40.6583 389.819 40.2654C389.819 39.8725 389.709 39.4875 389.503 39.1541C389.408 39.0383 389.29 38.9451 389.155 38.8812C389.021 38.8172 388.874 38.7843 388.725 38.7847C388.579 38.7832 388.435 38.8152 388.303 38.8782C388.172 38.9411 388.056 39.0334 387.966 39.148C387.732 39.4588 387.619 39.8438 387.646 40.2321Z" fill="white"/>
<path d="M391.427 43.8276L391.349 43.222C391.474 43.2572 391.604 43.2775 391.734 43.2826C391.858 43.2864 391.98 43.2594 392.09 43.2038C392.179 43.1536 392.256 43.0831 392.313 42.9979C392.393 42.8353 392.461 42.6673 392.518 42.4953C392.518 42.4589 392.518 42.3984 392.578 42.3257L391.071 38.3406H391.795L392.602 40.6239C392.714 40.9257 392.811 41.2329 392.892 41.5444C392.967 41.2371 393.057 40.9339 393.163 40.636L394.013 38.3164H394.682L393.205 42.362C393.103 42.6716 392.978 42.9732 392.831 43.2644C392.735 43.4583 392.595 43.6265 392.421 43.755C392.256 43.862 392.063 43.9168 391.867 43.9124C391.717 43.9092 391.568 43.8805 391.427 43.8276Z" fill="white"/>
<path d="M309.584 51.4837V46.0331H311.634C311.976 46.0202 312.319 46.0758 312.64 46.1966C312.891 46.2987 313.102 46.4792 313.243 46.7114C313.384 46.9275 313.459 47.1799 313.46 47.4381C313.459 47.672 313.392 47.9007 313.267 48.0983C313.12 48.3222 312.91 48.4973 312.664 48.601C312.967 48.6781 313.235 48.8524 313.43 49.0975C313.608 49.3391 313.701 49.633 313.695 49.9333C313.697 50.1811 313.641 50.4257 313.532 50.6479C313.442 50.8484 313.303 51.023 313.129 51.1567C312.949 51.2885 312.743 51.3814 312.526 51.4292C312.237 51.4952 311.942 51.5256 311.646 51.52L309.584 51.4837ZM310.307 48.3042H311.513C311.746 48.3124 311.979 48.29 312.206 48.2375C312.373 48.2002 312.521 48.1037 312.623 47.9658C312.724 47.8279 312.774 47.6578 312.761 47.4866C312.765 47.3155 312.719 47.147 312.628 47.0021C312.542 46.8646 312.409 46.7634 312.254 46.7174C311.974 46.6538 311.686 46.6273 311.398 46.6387H310.307V48.3042ZM310.307 50.8357H311.67C311.832 50.849 311.996 50.849 312.158 50.8357C312.307 50.8132 312.45 50.7617 312.58 50.6843C312.697 50.6109 312.791 50.5059 312.851 50.3815C312.925 50.2396 312.962 50.0814 312.96 49.9213C312.966 49.7293 312.911 49.5403 312.803 49.3822C312.699 49.2281 312.546 49.1147 312.369 49.0612C312.11 48.9912 311.842 48.9606 311.573 48.9704H310.307V50.8357Z" fill="white"/>
<path d="M317.336 50.2246L318.029 50.3093C317.941 50.6859 317.729 51.0213 317.426 51.2602C317.043 51.5081 316.59 51.6228 316.136 51.5866C315.681 51.5504 315.252 51.3656 314.912 51.0602C314.555 50.6425 314.374 50.1019 314.406 49.5523C314.369 48.9844 314.553 48.4243 314.918 47.9897C315.088 47.8077 315.295 47.6644 315.525 47.5693C315.755 47.4743 316.002 47.4297 316.251 47.4386C316.493 47.4309 316.735 47.475 316.959 47.5679C317.184 47.6608 317.386 47.8005 317.553 47.9776C317.908 48.4054 318.087 48.9536 318.053 49.5098V49.6733H315.099C315.087 50.0442 315.211 50.4068 315.449 50.6909C315.554 50.8052 315.681 50.8956 315.824 50.9562C315.966 51.0168 316.12 51.0462 316.275 51.0421C316.491 51.0414 316.701 50.9737 316.877 50.8483C317.091 50.6936 317.252 50.4754 317.336 50.2246ZM315.135 49.1344H317.348C317.341 48.8641 317.252 48.6023 317.094 48.3833C316.995 48.2579 316.869 48.1571 316.724 48.0888C316.58 48.0206 316.422 47.9867 316.263 47.9897C316.118 47.986 315.975 48.0121 315.841 48.0663C315.708 48.1204 315.586 48.2016 315.485 48.3047C315.267 48.5258 315.141 48.8229 315.135 49.1344Z" fill="white"/>
<path d="M318.864 51.4929V47.5321H319.467V48.1377C319.569 47.9239 319.715 47.7341 319.895 47.5805C320.021 47.4932 320.17 47.4467 320.323 47.4473C320.57 47.4531 320.81 47.5286 321.016 47.6653L320.787 48.2709C320.638 48.1795 320.468 48.1293 320.293 48.1256C320.149 48.1242 320.009 48.1711 319.895 48.2588C319.775 48.3521 319.689 48.4816 319.648 48.6283C319.571 48.8836 319.532 49.1489 319.533 49.4155V51.4929H318.864Z" fill="white"/>
<path d="M321.421 46.7822V46.0312H322.078V46.8065L321.421 46.7822ZM321.421 51.494V47.5211H322.078V51.4818L321.421 51.494Z" fill="white"/>
<path d="M322.758 51.4835V50.9384L325.278 48.0314C324.994 48.0314 324.741 48.0314 324.518 48.0314H322.909V47.4863H326.14V47.9284L324 50.4539L323.584 50.9141C323.885 50.9141 324.187 50.884 324.434 50.884H326.242V51.4895L322.758 51.4835Z" fill="white"/>
<path d="M326.936 46.7822V46.0312H327.605V46.8065L326.936 46.7822ZM326.936 51.494V47.5211H327.605V51.4818L326.936 51.494Z" fill="white"/>
<path d="M328.627 51.4824V47.5216H329.23V48.0849C329.367 47.87 329.559 47.6961 329.786 47.581C330.013 47.466 330.266 47.4141 330.52 47.4308C330.745 47.4285 330.968 47.4718 331.177 47.558C331.354 47.6264 331.509 47.744 331.623 47.8971C331.729 48.0446 331.801 48.2144 331.834 48.3937C331.856 48.6152 331.86 48.8379 331.846 49.0599V51.4824H331.177V49.0599C331.193 48.8564 331.175 48.6515 331.122 48.4543C331.067 48.3184 330.97 48.2039 330.845 48.1273C330.702 48.0449 330.54 48.003 330.375 48.0061C330.103 48.002 329.839 48.099 329.634 48.2787C329.511 48.4218 329.42 48.5887 329.365 48.7691C329.31 48.9493 329.293 49.1391 329.314 49.3264V51.4824H328.627Z" fill="white"/>
<path d="M337.558 51.4917V51.0072C337.447 51.2004 337.286 51.3591 337.091 51.4659C336.897 51.5727 336.677 51.6235 336.455 51.6129C336.144 51.6161 335.84 51.5252 335.581 51.3524C335.315 51.1701 335.106 50.916 334.978 50.6196C334.828 50.2805 334.754 49.9125 334.761 49.5415C334.756 49.1706 334.824 48.8023 334.96 48.4575C335.078 48.1513 335.289 47.8905 335.563 47.7126C335.827 47.5431 336.135 47.4547 336.449 47.4582C336.659 47.4586 336.866 47.5105 337.052 47.6096C337.233 47.7034 337.39 47.8381 337.51 48.0033V46.041H338.179V51.4917H337.558ZM335.436 49.5113C335.406 49.9167 335.519 50.3199 335.756 50.6499C335.846 50.7669 335.961 50.8619 336.092 50.9279C336.224 50.9941 336.368 51.0293 336.515 51.0315C336.659 51.0319 336.801 50.9995 336.931 50.9364C337.06 50.8735 337.174 50.7817 337.263 50.668C337.492 50.3487 337.601 49.9581 337.57 49.5657C337.608 49.1378 337.497 48.7097 337.257 48.3545C337.166 48.2353 337.05 48.1388 336.916 48.0726C336.782 48.0064 336.634 47.9723 336.485 47.973C336.341 47.9716 336.199 48.0036 336.069 48.0667C335.939 48.1297 335.826 48.222 335.738 48.3364C335.504 48.685 335.397 49.1046 335.436 49.5234V49.5113Z" fill="white"/>
<path d="M341.827 51.0109C341.616 51.2028 341.373 51.3565 341.11 51.4651C340.872 51.5515 340.621 51.5945 340.368 51.5923C340.006 51.6181 339.648 51.5033 339.368 51.2713C339.253 51.1691 339.163 51.043 339.102 50.9016C339.042 50.7604 339.013 50.6075 339.018 50.4538C339.016 50.2675 339.061 50.0839 339.151 49.9207C339.234 49.7665 339.351 49.6337 339.494 49.5331C339.642 49.4351 339.805 49.3616 339.977 49.3152C340.175 49.2662 340.376 49.2318 340.579 49.2121C340.987 49.172 341.391 49.095 341.785 48.982C341.785 48.8851 341.785 48.8307 341.785 48.8004C341.8 48.6913 341.791 48.5804 341.757 48.4754C341.724 48.3706 341.667 48.2746 341.592 48.1947C341.375 48.0241 341.101 47.9419 340.826 47.9646C340.582 47.9465 340.338 48.0035 340.127 48.1281C339.951 48.2859 339.834 48.4997 339.796 48.7338L339.139 48.6429C339.183 48.3947 339.284 48.1604 339.434 47.9586C339.592 47.7688 339.801 47.6298 340.037 47.5588C340.326 47.4594 340.63 47.4122 340.935 47.4195C341.215 47.4094 341.494 47.4484 341.761 47.5346C341.939 47.5945 342.098 47.6987 342.225 47.8374C342.331 47.9718 342.403 48.1296 342.436 48.2977C342.465 48.4981 342.477 48.7007 342.472 48.9034V49.7997C342.46 50.2039 342.474 50.6085 342.514 51.0109C342.541 51.1773 342.599 51.3374 342.683 51.4833H341.972C341.9 51.3342 341.851 51.1749 341.827 51.0109ZM341.773 49.509C341.417 49.6325 341.049 49.7177 340.676 49.7634C340.47 49.7816 340.267 49.8265 340.073 49.8966C339.964 49.9396 339.871 50.0159 339.808 50.1145C339.748 50.211 339.717 50.3222 339.717 50.4355C339.715 50.5205 339.732 50.6047 339.766 50.6823C339.801 50.7599 339.852 50.8287 339.916 50.8837C340.088 51.0169 340.303 51.0815 340.519 51.0654C340.759 51.0713 340.996 51.0127 341.206 50.8959C341.4 50.7919 341.557 50.6285 341.652 50.4295C341.736 50.2158 341.773 49.9866 341.761 49.7572L341.773 49.509Z" fill="white"/>
<path d="M343.49 51.4905V47.5296H344.093V48.0929C344.228 47.8831 344.415 47.7124 344.636 47.5977C344.857 47.483 345.104 47.4282 345.353 47.4388C345.58 47.4365 345.806 47.4798 346.016 47.566C346.194 47.6344 346.348 47.752 346.462 47.9051C346.566 48.0542 346.638 48.2233 346.673 48.4017C346.703 48.6204 346.715 48.8412 346.709 49.0619V51.4844H346.04V49.068C346.046 48.8632 346.02 48.6587 345.962 48.4623C345.906 48.3264 345.809 48.2119 345.684 48.1353C345.541 48.0534 345.379 48.0116 345.214 48.0141C344.942 48.0088 344.677 48.106 344.473 48.2867C344.352 48.4295 344.262 48.5957 344.209 48.7748C344.155 48.9541 344.138 49.1425 344.159 49.3284V51.4905H343.49Z" fill="white"/>
<path d="M349.939 51.4839V46.0333H351.82C352.148 46.0233 352.475 46.0498 352.797 46.112C353.092 46.1739 353.368 46.3093 353.598 46.5057C353.891 46.7567 354.114 47.0803 354.243 47.4444C354.511 48.2263 354.534 49.0714 354.31 49.8669C354.231 50.1517 354.107 50.4217 353.942 50.6663C353.805 50.8615 353.636 51.0315 353.442 51.1691C353.243 51.298 353.022 51.3902 352.791 51.4415C352.502 51.5055 352.206 51.536 351.911 51.5324L349.939 51.4839ZM350.663 50.8359H351.826C352.113 50.8462 352.399 50.8136 352.676 50.739C352.86 50.6829 353.029 50.5857 353.17 50.4545C353.353 50.2549 353.489 50.0169 353.568 49.7579C353.672 49.4147 353.721 49.0569 353.713 48.698C353.739 48.2404 353.641 47.7842 353.43 47.3778C353.273 47.1076 353.034 46.8952 352.748 46.7722C352.443 46.6852 352.125 46.6484 351.808 46.6632H350.663V50.8359Z" fill="white"/>
<path d="M355.376 46.792V46.041H356.045V46.8162L355.376 46.792ZM355.376 51.5037V47.5309H356.045V51.4917L355.376 51.5037Z" fill="white"/>
<path d="M359.656 51.0107C359.444 51.2014 359.202 51.3549 358.939 51.4649C358.701 51.5507 358.45 51.5938 358.198 51.5921C357.833 51.6176 357.473 51.5028 357.191 51.2711C357.077 51.1682 356.987 51.0418 356.927 50.9007C356.867 50.7596 356.837 50.6071 356.841 50.4536C356.84 50.272 356.883 50.093 356.967 49.9325C357.052 49.7719 357.174 49.6347 357.323 49.533C357.47 49.4328 357.633 49.359 357.806 49.3149C358.004 49.2661 358.205 49.2316 358.408 49.212C358.816 49.1729 359.22 49.0959 359.614 48.9819C359.614 48.885 359.614 48.8304 359.614 48.8001C359.629 48.6912 359.62 48.58 359.586 48.4753C359.553 48.3705 359.497 48.2745 359.421 48.1945C359.206 48.0237 358.935 47.9414 358.662 47.9644C358.417 47.9463 358.174 48.0033 357.962 48.1279C357.784 48.2848 357.665 48.4988 357.625 48.7335L356.968 48.6428C357.014 48.3954 357.115 48.1616 357.263 47.9584C357.421 47.7694 357.631 47.6306 357.866 47.5586C358.155 47.4587 358.459 47.4115 358.764 47.4193C359.042 47.4099 359.319 47.4489 359.584 47.5344C359.763 47.5944 359.925 47.6985 360.054 47.8372C360.158 47.9721 360.228 48.1299 360.259 48.2975C360.288 48.498 360.301 48.7006 360.295 48.9032V49.7994C360.283 50.2037 360.297 50.6083 360.337 51.0107C360.367 51.1764 360.424 51.3361 360.506 51.4832H359.807C359.728 51.3365 359.676 51.1763 359.656 51.0107ZM359.596 49.5087C359.242 49.6323 358.877 49.7177 358.505 49.7631C358.299 49.7823 358.097 49.8271 357.902 49.8963C357.795 49.9394 357.704 50.0158 357.643 50.1144C357.57 50.2365 357.542 50.3803 357.564 50.521C357.586 50.6616 357.657 50.79 357.763 50.8835C357.934 51.0188 358.15 51.0838 358.366 51.0653C358.608 51.0704 358.847 51.012 359.059 50.8956C359.252 50.7914 359.406 50.6279 359.499 50.4293C359.583 50.2156 359.62 49.9864 359.608 49.7571L359.596 49.5087Z" fill="white"/>
<path d="M362.047 51.4886L360.842 47.5156H361.535L362.138 49.811L362.373 50.6649C362.373 50.6225 362.451 50.3499 362.578 49.8413L363.211 47.5156H363.898L364.501 49.8231L364.694 50.58L364.923 49.811L365.604 47.5156H366.255L365.031 51.4886H364.332L363.729 49.1084L363.548 48.4604L362.747 51.4886H362.047Z" fill="white"/>
<path d="M369.422 51.0109C369.211 51.2028 368.968 51.3565 368.705 51.4651C368.467 51.5515 368.216 51.5945 367.963 51.5923C367.601 51.6181 367.243 51.5033 366.963 51.2713C366.848 51.1691 366.757 51.043 366.697 50.9016C366.637 50.7604 366.608 50.6075 366.613 50.4538C366.613 50.2731 366.656 50.0951 366.739 49.9348C366.821 49.7745 366.942 49.6367 367.089 49.5331C367.237 49.4351 367.4 49.3616 367.571 49.3152C367.77 49.2662 367.971 49.2318 368.174 49.2121C368.582 49.172 368.986 49.095 369.38 48.982V48.8004C369.396 48.6918 369.387 48.581 369.355 48.4762C369.323 48.3714 369.267 48.2752 369.193 48.1947C368.975 48.0251 368.702 47.9431 368.427 47.9646C368.183 47.9465 367.939 48.0035 367.728 48.1281C367.552 48.2859 367.435 48.4997 367.397 48.7338L366.739 48.6429C366.784 48.3947 366.885 48.1604 367.035 47.9586C367.19 47.7665 367.401 47.6271 367.638 47.5588C367.927 47.4594 368.231 47.4122 368.536 47.4195C368.816 47.4094 369.095 47.4484 369.362 47.5346C369.539 47.5945 369.699 47.6987 369.826 47.8374C369.931 47.9718 370.004 48.1296 370.037 48.2977C370.063 48.4984 370.073 48.7009 370.067 48.9034V49.7997C370.056 50.204 370.072 50.6088 370.115 51.0109C370.142 51.1773 370.2 51.3374 370.284 51.4833H369.579C369.5 51.3361 369.447 51.1763 369.422 51.0109ZM369.368 49.509C369.012 49.6325 368.644 49.7177 368.271 49.7634C368.065 49.7816 367.862 49.8265 367.668 49.8966C367.559 49.9396 367.466 50.0159 367.403 50.1145C367.341 50.2103 367.308 50.3216 367.306 50.4355C367.307 50.5205 367.326 50.6043 367.361 50.6816C367.397 50.7588 367.448 50.8276 367.511 50.8837C367.683 51.0169 367.898 51.0815 368.114 51.0654C368.354 51.0713 368.591 51.0127 368.801 50.8959C368.995 50.7919 369.151 50.6285 369.247 50.4295C369.331 50.2158 369.368 49.9866 369.356 49.7572L369.368 49.509Z" fill="white"/>
<path d="M370.811 50.3172L371.48 50.2142C371.504 50.4475 371.613 50.6632 371.787 50.8198C371.994 50.9721 372.248 51.0472 372.504 51.0318C372.747 51.0511 372.989 50.9823 373.186 50.838C373.255 50.7871 373.312 50.7208 373.352 50.644C373.392 50.5674 373.413 50.4824 373.415 50.3958C373.416 50.324 373.398 50.2529 373.363 50.1901C373.328 50.1274 373.277 50.075 373.216 50.0385C372.998 49.9316 372.767 49.8542 372.528 49.8084C372.179 49.7293 371.836 49.6219 371.504 49.4874C371.326 49.4043 371.175 49.272 371.07 49.1058C370.973 48.9453 370.923 48.7606 370.925 48.573C370.925 48.402 370.966 48.2336 371.046 48.0824C371.126 47.9314 371.239 47.8009 371.377 47.7008C371.509 47.6141 371.653 47.5487 371.805 47.507C372.001 47.4501 372.204 47.4235 372.408 47.4283C372.687 47.4221 372.965 47.4673 373.228 47.5615C373.431 47.6311 373.611 47.7571 373.746 47.9249C373.865 48.1078 373.943 48.3144 373.975 48.5305L373.318 48.6456C373.308 48.5526 373.281 48.4625 373.236 48.3804C373.192 48.2982 373.131 48.2258 373.059 48.1672C372.884 48.0405 372.671 47.9785 372.456 47.9915C372.224 47.9724 371.992 48.0275 371.793 48.149C371.735 48.1891 371.687 48.2423 371.654 48.3044C371.62 48.3665 371.602 48.4357 371.6 48.5064C371.599 48.5917 371.627 48.6748 371.679 48.7425C371.747 48.8252 371.837 48.8879 371.938 48.9243L372.54 49.0938C372.879 49.1752 373.211 49.2805 373.535 49.4088C373.719 49.4806 373.876 49.6086 373.985 49.7747C374.093 49.941 374.146 50.137 374.138 50.3353C374.132 50.5515 374.065 50.7615 373.945 50.9409C373.805 51.1466 373.608 51.3066 373.378 51.4012C373.114 51.514 372.828 51.5698 372.54 51.5647C372.114 51.6016 371.688 51.4882 371.335 51.2437C371.053 51.0097 370.867 50.68 370.811 50.3172Z" fill="white"/>
<path d="M374.899 46.792V46.041H375.568V46.8162L374.899 46.792ZM374.899 51.5037V47.5309H375.568V51.4917L374.899 51.5037Z" fill="white"/>
<path d="M378.467 49.5158C378.44 49.2153 378.481 48.9127 378.585 48.6301C378.689 48.3472 378.855 48.0912 379.07 47.8806C379.413 47.5816 379.857 47.4237 380.311 47.4384C380.559 47.4305 380.805 47.4737 381.036 47.5654C381.266 47.6571 381.475 47.7952 381.65 47.9714C382.012 48.3794 382.198 48.9152 382.168 49.4612C382.188 49.8776 382.109 50.2925 381.939 50.6725C381.789 50.9629 381.556 51.2014 381.27 51.3569C380.977 51.5204 380.646 51.604 380.311 51.599C380.063 51.6079 379.815 51.565 379.584 51.4734C379.353 51.3818 379.143 51.2431 378.967 51.0662C378.605 50.6347 378.426 50.0783 378.467 49.5158ZM379.16 49.5158C379.128 49.9252 379.246 50.3319 379.491 50.6603C379.593 50.7823 379.721 50.8798 379.864 50.9458C380.008 51.0118 380.165 51.0447 380.323 51.0419C380.482 51.0456 380.639 51.0132 380.783 50.947C380.927 50.881 381.054 50.7829 381.155 50.6603C381.402 50.3236 381.52 49.9085 381.487 49.4915C381.516 49.0919 381.398 48.6953 381.155 48.3772C381.054 48.2553 380.926 48.1577 380.782 48.0917C380.638 48.0257 380.482 47.9929 380.323 47.9956C380.166 47.9934 380.01 48.0259 379.866 48.0907C379.722 48.1556 379.594 48.2513 379.491 48.3711C379.246 48.6995 379.128 49.1064 379.16 49.5158Z" fill="white"/>
<path d="M382.961 51.4917V46.041H383.63V51.4917H382.961Z" fill="white"/>
<path d="M387.37 50.2246L388.063 50.3094C387.972 50.6847 387.76 51.0191 387.46 51.2602C387.077 51.5081 386.624 51.6228 386.17 51.5868C385.716 51.5506 385.286 51.3658 384.947 51.0604C384.59 50.6426 384.408 50.102 384.44 49.5523C384.403 48.9845 384.587 48.4244 384.953 47.9899C385.124 47.8074 385.332 47.6638 385.562 47.5687C385.793 47.4737 386.042 47.4293 386.291 47.4387C386.533 47.4315 386.773 47.4759 386.996 47.5688C387.22 47.6617 387.421 47.8011 387.587 47.9777C387.942 48.4054 388.121 48.9538 388.087 49.51V49.6735H385.133C385.129 50.0427 385.26 50.4005 385.501 50.6788C385.606 50.7932 385.734 50.8836 385.876 50.9441C386.019 51.0047 386.172 51.0341 386.327 51.0301C386.543 51.0295 386.754 50.9618 386.93 50.8363C387.133 50.68 387.286 50.4674 387.37 50.2246ZM385.164 49.1344H387.376C387.369 48.8643 387.281 48.6025 387.123 48.3835C387.024 48.258 386.897 48.1572 386.753 48.089C386.608 48.0207 386.45 47.9868 386.291 47.9899C386.147 47.9862 386.003 48.0122 385.87 48.0664C385.736 48.1205 385.614 48.2017 385.513 48.3048C385.295 48.5258 385.17 48.823 385.164 49.1344Z" fill="white"/>
<path d="M388.908 51.4917V46.041H389.595V48.0093C389.741 47.8317 389.926 47.6901 390.135 47.5956C390.344 47.5011 390.572 47.4562 390.801 47.4643C391.066 47.4565 391.329 47.5148 391.567 47.6338C391.771 47.7386 391.934 47.9092 392.031 48.1183C392.139 48.402 392.186 48.7054 392.169 49.0086V51.4917H391.464V48.9843C391.487 48.7213 391.409 48.4594 391.247 48.2516C391.168 48.1728 391.074 48.1115 390.97 48.0719C390.866 48.0322 390.755 48.015 390.644 48.0214C390.445 48.0208 390.25 48.073 390.078 48.1728C389.911 48.2705 389.78 48.419 389.704 48.5967C389.622 48.8321 389.586 49.0806 389.595 49.3296V51.4917H388.908Z" fill="white"/>
<path d="M393.342 48.2885V47.5254H394.107V48.2885H393.342ZM393.342 51.4984V50.7352H394.107V51.4861L393.342 51.4984Z" fill="white"/>
<path d="M284.766 58.0004C284.753 57.5181 284.837 57.0381 285.013 56.5893C285.14 56.3109 285.313 56.0569 285.526 55.8383C285.723 55.6246 285.964 55.4554 286.231 55.3416C286.604 55.1909 287.004 55.1168 287.406 55.1237C287.764 55.1075 288.12 55.1665 288.454 55.297C288.787 55.4272 289.089 55.6261 289.341 55.8807C289.808 56.4749 290.062 57.2099 290.062 57.967C290.062 58.7242 289.808 59.4592 289.341 60.0534C289.091 60.3066 288.79 60.5042 288.459 60.6336C288.128 60.7629 287.773 60.8212 287.419 60.8045C287.061 60.8218 286.704 60.7646 286.37 60.6365C286.036 60.5082 285.732 60.3118 285.478 60.0596C284.98 59.4941 284.724 58.7542 284.766 58.0004ZM285.906 57.9641C285.871 58.4675 286.024 58.9659 286.334 59.3631C286.467 59.5195 286.634 59.6442 286.822 59.7279C287.009 59.8117 287.213 59.8525 287.419 59.8476C287.623 59.852 287.826 59.8115 288.014 59.7289C288.201 59.6463 288.368 59.5235 288.504 59.3691C288.814 58.9586 288.964 58.448 288.926 57.9338C288.964 57.4309 288.818 56.9313 288.516 56.5287C288.374 56.38 288.204 56.2616 288.015 56.1807C287.826 56.0998 287.624 56.0581 287.419 56.0581C287.214 56.0581 287.011 56.0998 286.822 56.1807C286.634 56.2616 286.463 56.38 286.321 56.5287C286.007 56.9368 285.858 57.4499 285.906 57.9641Z" fill="white"/>
<path d="M292.736 56.737V57.5485H292.019V59.1535C292.006 59.3429 292.006 59.5332 292.019 59.7227C292.032 59.7769 292.064 59.8243 292.109 59.8559C292.163 59.8917 292.226 59.9087 292.29 59.9044C292.435 59.8948 292.578 59.8621 292.712 59.8075L292.797 60.625C292.535 60.7329 292.254 60.7864 291.971 60.7825C291.796 60.7825 291.622 60.7496 291.458 60.6856C291.327 60.6352 291.212 60.5493 291.127 60.4373C291.046 60.3138 290.997 60.1725 290.982 60.0256C290.951 59.7806 290.939 59.5335 290.946 59.2867V57.5485H290.464V56.737H290.946V55.9436L291.995 55.3379V56.743L292.736 56.737Z" fill="white"/>
<path d="M293.228 58.6682C293.229 58.3135 293.316 57.9642 293.481 57.6508C293.645 57.3345 293.899 57.075 294.211 56.9059C294.534 56.7293 294.898 56.6396 295.266 56.6453C295.539 56.6375 295.812 56.6874 296.065 56.7917C296.318 56.8959 296.547 57.0524 296.736 57.251C297.11 57.6553 297.317 58.1865 297.317 58.7379C297.317 59.2893 297.11 59.8203 296.736 60.2246C296.549 60.4226 296.322 60.5788 296.071 60.6831C295.82 60.7875 295.549 60.8377 295.278 60.8303C294.915 60.8286 294.558 60.7414 294.235 60.5759C293.913 60.4201 293.649 60.1656 293.481 59.8492C293.3 59.4828 293.213 59.077 293.228 58.6682ZM294.301 58.7227C294.279 59.0496 294.377 59.3732 294.578 59.6312C294.664 59.7301 294.771 59.8095 294.89 59.8637C295.009 59.9181 295.138 59.9463 295.269 59.9463C295.399 59.9463 295.529 59.9181 295.648 59.8637C295.767 59.8095 295.873 59.7301 295.959 59.6312C296.161 59.3714 296.259 59.0454 296.236 58.7167C296.259 58.3936 296.16 58.0735 295.959 57.8203C295.873 57.7214 295.767 57.642 295.648 57.5878C295.529 57.5334 295.399 57.5052 295.269 57.5052C295.138 57.5052 295.009 57.5334 294.89 57.5878C294.771 57.642 294.664 57.7214 294.578 57.8203C294.376 58.0753 294.277 58.3976 294.301 58.7227Z" fill="white"/>
<path d="M299.141 60.7066H298.092V56.7277H299.068V57.2909C299.178 57.0856 299.33 56.906 299.514 56.764C299.65 56.6785 299.807 56.6343 299.966 56.6368C300.211 56.6381 300.451 56.7073 300.66 56.8366L300.334 57.7511C300.19 57.6466 300.018 57.5876 299.84 57.5816C299.707 57.5752 299.576 57.6183 299.472 57.7027C299.346 57.82 299.262 57.9752 299.231 58.1449C299.152 58.5842 299.122 59.031 299.141 59.4772V60.7066Z" fill="white"/>
<path d="M301.11 56.1938V55.2188H302.189V56.1938H301.11ZM301.11 60.7118V56.7328H302.189V60.7118H301.11Z" fill="white"/>
<path d="M305.045 56.737V57.5485H304.328V59.1535C304.311 59.3428 304.311 59.5333 304.328 59.7227C304.341 59.7769 304.373 59.8243 304.419 59.8559C304.47 59.891 304.531 59.908 304.593 59.9044C304.738 59.8954 304.881 59.8627 305.015 59.8075L305.106 60.625C304.844 60.7329 304.563 60.7864 304.28 60.7825C304.105 60.7836 303.931 60.7508 303.768 60.6856C303.636 60.6368 303.52 60.5506 303.436 60.4373C303.356 60.313 303.304 60.1724 303.285 60.0256C303.27 59.7794 303.27 59.5327 303.285 59.2867V57.5485H302.791V56.737H303.273V55.9436L304.322 55.3379V56.743L305.045 56.737Z" fill="white"/>
<path d="M306.544 57.945L305.598 57.7753C305.677 57.4402 305.871 57.1441 306.147 56.9395C306.497 56.7301 306.903 56.6329 307.31 56.661C307.665 56.6409 308.021 56.6965 308.353 56.8245C308.554 56.9137 308.724 57.0614 308.841 57.2484C308.948 57.5365 308.996 57.8436 308.98 58.1508V59.362C308.974 59.6213 308.991 59.8807 309.028 60.1372C309.071 60.3213 309.133 60.5001 309.215 60.6702H308.172C308.131 60.5678 308.097 60.4625 308.07 60.3553L308.033 60.2342C307.858 60.4015 307.654 60.535 307.431 60.6279C307.225 60.7155 307.003 60.7608 306.779 60.7611C306.426 60.7793 306.08 60.6575 305.815 60.4219C305.7 60.3151 305.609 60.1845 305.549 60.0392C305.489 59.8939 305.46 59.7374 305.465 59.5801C305.462 59.3676 305.516 59.1581 305.622 58.9744C305.732 58.799 305.888 58.6583 306.074 58.5687C306.341 58.4537 306.62 58.3724 306.906 58.3264C307.252 58.2687 307.593 58.1816 307.925 58.066V57.963C307.933 57.8838 307.924 57.8034 307.898 57.728C307.872 57.6526 307.83 57.5839 307.774 57.5271C307.606 57.4232 307.409 57.3784 307.214 57.3999C307.061 57.3908 306.91 57.4288 306.779 57.5088C306.655 57.6241 306.573 57.7774 306.544 57.945ZM307.949 58.7988C307.739 58.8647 307.526 58.9192 307.31 58.9623C307.112 58.9911 306.921 59.0524 306.743 59.1441C306.681 59.183 306.629 59.2374 306.593 59.3022C306.557 59.3668 306.539 59.4394 306.538 59.5134C306.537 59.585 306.551 59.6561 306.579 59.7219C306.607 59.7878 306.649 59.8468 306.701 59.895C306.756 59.9494 306.821 59.9921 306.892 60.0202C306.964 60.0483 307.04 60.0613 307.117 60.0585C307.313 60.0564 307.504 59.9905 307.66 59.8708C307.778 59.7865 307.865 59.6651 307.907 59.5257C307.943 59.3566 307.957 59.1835 307.949 59.0109V58.7988Z" fill="white"/>
<path d="M309.653 59.5746L310.702 59.4172C310.739 59.5986 310.834 59.7626 310.973 59.8836C311.151 60.002 311.363 60.0574 311.576 60.0411C311.788 60.0556 311.999 60.0027 312.179 59.8896C312.223 59.8581 312.259 59.8162 312.283 59.7675C312.307 59.719 312.319 59.6652 312.318 59.611C312.32 59.5375 312.294 59.4661 312.245 59.4111C312.14 59.3396 312.021 59.2921 311.896 59.2719C311.33 59.1864 310.781 59.0127 310.268 58.7571C310.119 58.663 309.997 58.5311 309.915 58.3749C309.832 58.2188 309.792 58.0436 309.798 57.8668C309.796 57.7003 309.831 57.5354 309.901 57.3844C309.971 57.2334 310.074 57.1002 310.202 56.9947C310.569 56.7301 311.018 56.6055 311.468 56.6434C311.887 56.6159 312.305 56.7083 312.673 56.91C312.946 57.095 313.139 57.3758 313.216 57.6972L312.227 57.879C312.193 57.7342 312.107 57.607 311.986 57.5217C311.835 57.4323 311.661 57.3903 311.486 57.4005C311.278 57.383 311.07 57.4227 310.883 57.5155C310.847 57.5379 310.817 57.5689 310.796 57.606C310.775 57.6431 310.763 57.6849 310.762 57.7275C310.763 57.7665 310.773 57.8045 310.792 57.8385C310.811 57.8723 310.838 57.9009 310.871 57.9213C311.183 58.0615 311.511 58.1612 311.848 58.218C312.266 58.2874 312.665 58.4466 313.017 58.6845C313.126 58.7817 313.212 58.9024 313.268 59.0376C313.325 59.173 313.35 59.3192 313.342 59.4657C313.342 59.6471 313.302 59.8262 313.223 59.9897C313.145 60.1533 313.031 60.297 312.89 60.4104C312.503 60.6985 312.027 60.8382 311.546 60.804C311.094 60.8268 310.647 60.7105 310.262 60.471C309.955 60.259 309.738 59.9392 309.653 59.5746Z" fill="white"/>
<path d="M318.366 55.2188H319.469V58.6949C319.481 59.0484 319.441 59.4014 319.349 59.7428C319.24 60.0602 319.028 60.3314 318.746 60.5119C318.414 60.7203 318.027 60.8216 317.637 60.8026C317.409 60.8173 317.18 60.7846 316.966 60.7064C316.751 60.6283 316.555 60.5064 316.389 60.3484C316.077 59.9757 315.919 59.4963 315.949 59.0099L316.992 58.8949C316.986 59.1247 317.033 59.3528 317.13 59.561C317.186 59.6551 317.266 59.7323 317.361 59.7845C317.456 59.8369 317.564 59.8621 317.673 59.8577C317.771 59.8682 317.87 59.8543 317.961 59.8174C318.053 59.7805 318.134 59.7216 318.197 59.6459C318.334 59.3701 318.392 59.0623 318.366 58.7555V55.2188Z" fill="white"/>
<path d="M321.412 57.9452L320.46 57.7756C320.543 57.4409 320.739 57.1455 321.015 56.9398C321.365 56.7297 321.771 56.6324 322.178 56.6612C322.533 56.6422 322.888 56.698 323.221 56.8247C323.422 56.9125 323.59 57.0605 323.703 57.2486C323.813 57.5359 323.861 57.8438 323.842 58.151V59.3623C323.829 59.6356 323.843 59.9094 323.884 60.1799C323.924 60.3647 323.987 60.5438 324.071 60.7129H323.034C323.034 60.6403 322.974 60.5372 322.932 60.3979C322.926 60.3559 322.914 60.3151 322.895 60.2768C322.722 60.446 322.517 60.5797 322.293 60.6706C322.087 60.7576 321.865 60.8027 321.642 60.8038C321.288 60.8226 320.942 60.7007 320.677 60.4646C320.548 60.3408 320.45 60.1876 320.391 60.0178C320.332 59.8481 320.315 59.6668 320.34 59.4891C320.366 59.3112 320.433 59.1421 320.537 58.9958C320.64 58.8494 320.777 58.7301 320.936 58.6477C321.202 58.532 321.482 58.4505 321.768 58.4054C322.114 58.347 322.455 58.2598 322.787 58.145V58.0421C322.794 57.9628 322.785 57.8829 322.759 57.8076C322.733 57.7323 322.691 57.6637 322.636 57.6061C322.468 57.5039 322.271 57.4593 322.076 57.4789C321.921 57.4698 321.768 57.5078 321.636 57.5878C321.531 57.6847 321.454 57.8081 321.412 57.9452ZM322.817 58.7992C322.678 58.8475 322.467 58.8961 322.178 58.9627C321.968 58.9891 321.765 59.0506 321.575 59.1443C321.514 59.1846 321.463 59.2392 321.427 59.3036C321.392 59.3679 321.372 59.4401 321.37 59.5138C321.369 59.5853 321.383 59.6564 321.411 59.7221C321.439 59.788 321.481 59.847 321.533 59.8952C321.647 60.0028 321.799 60.0613 321.955 60.0589C322.15 60.0575 322.338 59.9915 322.492 59.8711C322.61 59.7856 322.699 59.6648 322.745 59.5258C322.778 59.3565 322.792 59.1837 322.787 59.0111L322.817 58.7992Z" fill="white"/>
<path d="M324.488 59.5725L325.537 59.4151C325.569 59.5982 325.665 59.7636 325.808 59.8813C325.986 60.0003 326.198 60.0557 326.411 60.0388C326.623 60.0519 326.833 59.9989 327.014 59.8875C327.058 59.8558 327.094 59.8139 327.118 59.7654C327.142 59.7169 327.154 59.6631 327.153 59.6089C327.154 59.5719 327.148 59.535 327.134 59.5007C327.121 59.4662 327.1 59.435 327.074 59.409C326.97 59.3361 326.85 59.2885 326.725 59.2696C326.169 59.1811 325.63 59.0075 325.127 58.7548C324.978 58.6607 324.856 58.5291 324.774 58.3728C324.691 58.2166 324.651 58.0413 324.657 57.8647C324.658 57.6956 324.698 57.5291 324.774 57.378C324.849 57.2269 324.957 57.095 325.091 56.9926C325.441 56.7411 325.867 56.6172 326.297 56.6413C326.715 56.6144 327.133 56.7067 327.502 56.9077C327.771 57.0964 327.964 57.3758 328.045 57.6951L327.056 57.8767C327.022 57.7319 326.936 57.6047 326.815 57.5194C326.662 57.4304 326.486 57.3884 326.309 57.3982C326.101 57.3802 325.892 57.42 325.706 57.5134C325.67 57.5356 325.64 57.5669 325.619 57.6039C325.598 57.6409 325.586 57.6828 325.585 57.7254C325.586 57.7634 325.596 57.8008 325.613 57.8345C325.631 57.8682 325.657 57.8973 325.688 57.9192C326.002 58.0588 326.332 58.1585 326.67 58.2159C327.089 58.287 327.487 58.4459 327.84 58.6822C327.949 58.7794 328.035 58.9003 328.091 59.0355C328.148 59.1707 328.173 59.3171 328.165 59.4634C328.165 59.6449 328.124 59.824 328.046 59.9875C327.968 60.1512 327.854 60.2949 327.713 60.4083C327.324 60.6962 326.845 60.8358 326.363 60.802C325.913 60.8237 325.467 60.7077 325.085 60.4689C324.783 60.2546 324.57 59.9353 324.488 59.5725Z" fill="white"/>
<path d="M329.915 57.9452L328.968 57.7756C329.045 57.4413 329.238 57.1454 329.511 56.9398C329.861 56.7297 330.267 56.6324 330.674 56.6612C331.03 56.6417 331.385 56.6974 331.717 56.8247C331.918 56.9125 332.086 57.0605 332.199 57.2486C332.306 57.5367 332.349 57.8447 332.326 58.151V59.3623C332.318 59.6217 332.334 59.8813 332.374 60.1375C332.417 60.3216 332.48 60.5003 332.561 60.6706H331.53C331.53 60.5978 331.47 60.4948 331.434 60.3556C331.424 60.3139 331.41 60.2732 331.392 60.2344C331.218 60.4037 331.013 60.5373 330.789 60.6281C330.583 60.7151 330.361 60.7604 330.138 60.7613C329.784 60.7803 329.438 60.6584 329.173 60.4222C329.058 60.3153 328.968 60.1848 328.907 60.0396C328.847 59.8943 328.819 59.7377 328.824 59.5804C328.817 59.3676 328.871 59.1573 328.981 58.9747C329.09 58.7993 329.247 58.6585 329.433 58.5689C329.699 58.4541 329.978 58.3726 330.264 58.3267C330.611 58.2682 330.951 58.1811 331.283 58.0663V57.9634C331.292 57.884 331.283 57.8037 331.257 57.7283C331.231 57.6529 331.188 57.5843 331.132 57.5273C330.965 57.4243 330.768 57.3797 330.572 57.4001C330.418 57.3917 330.264 57.4297 330.132 57.5092C330.016 57.6282 329.94 57.7807 329.915 57.9452ZM331.319 58.7992C331.187 58.8475 330.97 58.8961 330.68 58.9627C330.471 58.9891 330.267 59.0506 330.078 59.1443C330.016 59.1846 329.966 59.2392 329.93 59.3036C329.894 59.3679 329.874 59.4401 329.873 59.5138C329.871 59.586 329.885 59.6575 329.915 59.7235C329.944 59.7893 329.987 59.8481 330.041 59.8952C330.096 59.9498 330.161 59.9923 330.233 60.0204C330.304 60.0485 330.381 60.0617 330.457 60.0589C330.654 60.0566 330.844 59.9907 331 59.8711C331.117 59.7853 331.203 59.6643 331.247 59.5258C331.284 59.3569 331.298 59.1838 331.289 59.0111L331.319 58.7992Z" fill="white"/>
<path d="M335.518 60.7118V55.2188H336.621V57.6412L338.851 55.2188H340.334L338.272 57.3566L340.442 60.7118H339.014L337.513 58.15L336.621 59.0705V60.73L335.518 60.7118Z" fill="white"/>
<path d="M343.301 59.444L344.344 59.6196C344.241 59.9693 344.03 60.2769 343.741 60.4977C343.419 60.708 343.04 60.8137 342.656 60.8006C342.366 60.8198 342.075 60.7682 341.808 60.6501C341.541 60.532 341.307 60.3509 341.125 60.1223C340.843 59.7225 340.696 59.2433 340.703 58.7535C340.669 58.1897 340.853 57.6346 341.215 57.2031C341.38 57.022 341.582 56.8786 341.806 56.7824C342.031 56.6863 342.274 56.6398 342.518 56.646C342.781 56.6353 343.043 56.6841 343.285 56.7889C343.527 56.8937 343.743 57.0518 343.916 57.2516C344.298 57.7751 344.472 58.4229 344.404 59.0685H341.776C341.765 59.3361 341.856 59.5979 342.029 59.8013C342.106 59.8846 342.199 59.9509 342.303 59.9957C342.407 60.0406 342.519 60.0631 342.632 60.0617C342.783 60.0693 342.932 60.0197 343.048 59.9223C343.188 59.7995 343.278 59.6292 343.301 59.444ZM343.362 58.3781C343.373 58.1243 343.29 57.8755 343.126 57.6816C343.058 57.606 342.974 57.5459 342.88 57.5052C342.787 57.4646 342.686 57.4442 342.584 57.4454C342.477 57.4434 342.371 57.4644 342.274 57.5074C342.176 57.5502 342.088 57.6137 342.017 57.6936C341.86 57.8857 341.781 58.1299 341.794 58.3781H343.362Z" fill="white"/>
<path d="M347.862 60.7133V60.1078C347.708 60.3248 347.5 60.498 347.259 60.6104C347.031 60.7318 346.777 60.7963 346.518 60.7981C346.267 60.8022 346.02 60.7396 345.801 60.6164C345.597 60.5091 345.436 60.3364 345.342 60.1259C345.236 59.8438 345.189 59.5429 345.204 59.2417V56.7344H346.247V58.5512C346.232 58.8937 346.253 59.2365 346.307 59.5748C346.34 59.6973 346.415 59.8044 346.518 59.8775C346.632 59.9537 346.767 59.9919 346.904 59.9866C347.076 59.9897 347.244 59.939 347.386 59.8412C347.52 59.7531 347.622 59.6233 347.675 59.4718C347.748 59.1195 347.774 58.7591 347.754 58.3999V56.7344H348.803V60.7133H347.862Z" fill="white"/>
<path d="M350.703 57.9441L349.751 57.7744C349.83 57.4332 350.026 57.1308 350.305 56.9206C350.655 56.7096 351.062 56.6123 351.469 56.6419C351.824 56.6229 352.179 56.6787 352.511 56.8054C352.712 56.8931 352.881 57.0413 352.994 57.2294C353.11 57.5298 353.157 57.8528 353.132 58.1743V59.3854C353.125 59.6451 353.144 59.9047 353.187 60.1606C353.226 60.3455 353.289 60.5246 353.374 60.6937H352.337C352.337 60.621 352.276 60.5179 352.234 60.3787C352.225 60.3374 352.213 60.2969 352.198 60.2575C352.032 60.4223 351.838 60.5556 351.625 60.6512C351.419 60.7382 351.198 60.7834 350.974 60.7845C350.621 60.8034 350.274 60.6814 350.01 60.4453C349.821 60.2617 349.7 60.0197 349.665 59.7582C349.63 59.4967 349.683 59.231 349.817 59.0039C349.926 58.83 350.08 58.6895 350.263 58.5982C350.531 58.4826 350.813 58.4011 351.101 58.3558C351.447 58.2974 351.788 58.2103 352.12 58.0954V57.9925C352.127 57.9132 352.117 57.8333 352.091 57.7581C352.065 57.6828 352.024 57.6142 351.969 57.5565C351.799 57.4539 351.6 57.4093 351.402 57.4293C351.25 57.421 351.099 57.459 350.968 57.5383C350.84 57.6426 350.747 57.7845 350.703 57.9441ZM352.108 58.798C351.969 58.8465 351.758 58.8949 351.469 58.9615C351.269 58.9913 351.076 59.0525 350.896 59.1433C350.833 59.1822 350.782 59.2366 350.746 59.3014C350.71 59.366 350.691 59.4386 350.691 59.5126C350.69 59.5842 350.703 59.6553 350.731 59.7211C350.759 59.7869 350.801 59.846 350.854 59.8942C350.968 60.0016 351.119 60.0603 351.276 60.0577C351.47 60.0565 351.659 59.9905 351.812 59.8699C351.931 59.7845 352.019 59.6638 352.065 59.5248C352.099 59.3553 352.113 59.1827 352.108 59.01V58.798Z" fill="white"/>
<path d="M357.768 60.7119H356.719V58.6768C356.735 58.3986 356.713 58.1194 356.653 57.8472C356.614 57.7257 356.538 57.6199 356.436 57.5443C356.328 57.4751 356.202 57.4392 356.074 57.4414C355.9 57.4383 355.728 57.4913 355.586 57.5928C355.444 57.6843 355.339 57.824 355.29 57.9864C355.221 58.286 355.192 58.5937 355.206 58.9009V60.7179H354.157V56.7328H355.134V57.3384C355.349 57.0409 355.657 56.825 356.01 56.7261C356.362 56.6272 356.737 56.6509 357.075 56.7934C357.245 56.8606 357.394 56.9712 357.509 57.1143C357.606 57.2445 357.675 57.3927 357.714 57.5505C357.755 57.7841 357.773 58.0215 357.768 58.2589V60.7119Z" fill="white"/>
<path d="M358.734 60.9723L359.939 61.1175C359.942 61.1729 359.955 61.2273 359.979 61.2772C360.003 61.3271 360.037 61.3718 360.078 61.4082C360.22 61.4926 360.384 61.5308 360.548 61.5173C360.756 61.5271 360.963 61.4855 361.151 61.3962C361.248 61.333 361.322 61.2393 361.362 61.1297C361.402 60.9715 361.418 60.8081 361.41 60.6452V60.0396C361.28 60.2406 361.101 60.4054 360.89 60.5187C360.679 60.632 360.444 60.6901 360.205 60.6876C359.953 60.6919 359.706 60.632 359.484 60.5133C359.263 60.3946 359.075 60.2212 358.939 60.0093C358.687 59.6121 358.561 59.1475 358.577 58.677C358.537 58.124 358.707 57.5766 359.053 57.1446C359.203 56.9734 359.389 56.8374 359.598 56.7464C359.806 56.6553 360.032 56.6115 360.259 56.6178C360.497 56.6186 360.732 56.6781 360.942 56.791C361.152 56.904 361.331 57.0671 361.464 57.2658V56.7087H362.465V60.2757C362.48 60.6309 362.442 60.9862 362.35 61.3296C362.292 61.5371 362.18 61.7254 362.025 61.8747C361.865 62.0185 361.676 62.1259 361.47 62.1896C361.184 62.2694 360.887 62.306 360.59 62.2986C360.089 62.3451 359.587 62.2238 359.162 61.9533C359.028 61.8505 358.92 61.7175 358.846 61.5649C358.773 61.4124 358.736 61.2446 358.74 61.0752L358.734 60.9723ZM359.674 58.6406C359.648 58.968 359.732 59.2948 359.915 59.5671C359.987 59.6583 360.079 59.7317 360.183 59.7821C360.288 59.8325 360.402 59.8585 360.518 59.8578C360.642 59.8598 360.765 59.8336 360.878 59.7812C360.991 59.7288 361.09 59.6515 361.169 59.5551C361.362 59.3007 361.457 58.984 361.434 58.6647C361.459 58.3377 361.37 58.0119 361.181 57.7443C361.103 57.6488 361.005 57.5724 360.893 57.521C360.781 57.4695 360.659 57.4443 360.536 57.4475C360.421 57.4483 360.306 57.4747 360.202 57.525C360.098 57.5752 360.006 57.648 359.933 57.7382C359.746 58 359.654 58.3187 359.674 58.6406Z" fill="white"/>
<path d="M364.27 57.9437L363.324 57.7742C363.398 57.4325 363.593 57.1293 363.872 56.9203C364.223 56.7102 364.629 56.6128 365.036 56.6417C365.391 56.6222 365.746 56.6779 366.079 56.8052C366.279 56.8928 366.448 57.041 366.561 57.2291C366.68 57.5289 366.729 57.8521 366.705 58.174V59.3852C366.697 59.6445 366.713 59.9042 366.754 60.1604C366.796 60.3445 366.859 60.5231 366.941 60.6934H365.898C365.898 60.6206 365.837 60.5177 365.801 60.3785C365.792 60.3367 365.777 60.2961 365.759 60.2573C365.594 60.4233 365.4 60.5568 365.186 60.6509C364.98 60.7379 364.759 60.7832 364.535 60.7841C364.182 60.8031 363.835 60.6812 363.571 60.4451C363.456 60.3381 363.365 60.2077 363.305 60.0624C363.245 59.9171 363.216 59.7606 363.221 59.6033C363.214 59.3904 363.269 59.1801 363.378 58.9976C363.487 58.8222 363.644 58.6815 363.83 58.5919C364.096 58.4769 364.376 58.3956 364.662 58.3496C365.008 58.291 365.349 58.204 365.681 58.0892V57.9862C365.689 57.9068 365.68 57.8266 365.654 57.7512C365.628 57.6758 365.586 57.6071 365.53 57.5501C365.362 57.4472 365.165 57.4025 364.969 57.4229C364.815 57.4146 364.662 57.4526 364.529 57.532C364.402 57.6388 364.312 57.7827 364.27 57.9437ZM365.675 58.7978C365.542 58.8461 365.325 58.8947 365.036 58.9613C364.836 58.9911 364.643 59.0523 364.463 59.143C364.402 59.1832 364.351 59.2379 364.315 59.3022C364.279 59.3666 364.26 59.4387 364.258 59.5124C364.257 59.5846 364.271 59.6561 364.3 59.7221C364.329 59.7881 364.373 59.8467 364.427 59.894C364.481 59.9484 364.546 59.991 364.618 60.0191C364.69 60.0473 364.766 60.0602 364.843 60.0575C365.039 60.0553 365.229 59.9895 365.385 59.8697C365.502 59.7839 365.589 59.6631 365.632 59.5244C365.669 59.3555 365.683 59.1824 365.675 59.0096V58.7978Z" fill="white"/>
<path d="M371.354 60.7117H370.305V58.6768C370.318 58.3984 370.296 58.1196 370.239 57.847C370.197 57.7271 370.119 57.6232 370.016 57.5503C369.909 57.4781 369.782 57.4419 369.654 57.4473C369.479 57.4443 369.308 57.4973 369.166 57.5986C369.025 57.6921 368.921 57.8311 368.87 57.9924C368.804 58.2922 368.777 58.5999 368.792 58.9069V60.7237H367.743V56.7327H368.714V57.3382C368.862 57.1288 369.058 56.9584 369.286 56.8414C369.514 56.7244 369.766 56.6643 370.022 56.6661C370.239 56.6636 370.455 56.7071 370.655 56.7932C370.826 56.8571 370.977 56.9684 371.089 57.1141C371.188 57.2427 371.258 57.3916 371.294 57.5503C371.338 57.7838 371.358 58.0212 371.354 58.2589V60.7117Z" fill="white"/>
<path d="M376.266 62.322H375.548C375.174 61.7613 374.882 61.1494 374.68 60.5051C374.483 59.92 374.381 59.3063 374.379 58.6883C374.374 57.989 374.499 57.2948 374.747 56.6412C374.958 56.1045 375.231 55.5942 375.561 55.1211H376.278C375.984 55.7419 375.748 56.3887 375.573 57.0531C375.443 57.6068 375.378 58.174 375.38 58.7429C375.383 59.1652 375.421 59.5865 375.494 60.0026C375.569 60.4135 375.673 60.8184 375.808 61.2137C375.892 61.4802 376.049 61.8497 376.266 62.322Z" fill="white"/>
<path d="M376.861 58.0004C376.848 57.5181 376.932 57.038 377.108 56.5892C377.234 56.3111 377.408 56.0568 377.621 55.8383C377.818 55.6246 378.058 55.4553 378.326 55.3417C378.699 55.1897 379.099 55.1155 379.501 55.1237C379.858 55.1076 380.215 55.1665 380.548 55.2969C380.882 55.4274 381.184 55.6261 381.436 55.8806C381.903 56.475 382.157 57.21 382.157 57.9672C382.157 58.7243 381.903 59.4593 381.436 60.0535C381.186 60.3067 380.885 60.5043 380.554 60.6337C380.223 60.763 379.868 60.8212 379.513 60.8045C379.156 60.8219 378.799 60.7647 378.465 60.6365C378.131 60.5082 377.827 60.3118 377.572 60.0596C377.074 59.4942 376.819 58.7541 376.861 58.0004ZM377.994 57.9641C377.959 58.4724 378.113 58.9757 378.428 59.3752C378.562 59.5316 378.729 59.6562 378.917 59.7401C379.104 59.8239 379.308 59.8647 379.513 59.8597C379.718 59.8642 379.921 59.8237 380.109 59.741C380.296 59.6584 380.463 59.5356 380.598 59.3813C380.909 58.9708 381.059 58.4602 381.02 57.9458C381.058 57.4431 380.913 56.9435 380.61 56.5409C380.469 56.392 380.298 56.2737 380.11 56.1928C379.921 56.112 379.718 56.0703 379.513 56.0703C379.308 56.0703 379.105 56.112 378.917 56.1928C378.728 56.2737 378.558 56.392 378.416 56.5409C378.102 56.9448 377.951 57.4531 377.994 57.9641Z" fill="white"/>
<path d="M384.99 55.2188H386.093V58.6951C386.105 59.0484 386.065 59.4015 385.973 59.7428C385.863 60.0596 385.651 60.3305 385.37 60.5119C385.036 60.7204 384.647 60.8218 384.255 60.8026C384.028 60.8173 383.8 60.7846 383.587 60.7064C383.373 60.6282 383.178 60.5062 383.013 60.3484C382.855 60.1661 382.734 59.9537 382.659 59.7239C382.583 59.4939 382.554 59.2513 382.573 59.0101L383.61 58.8949C383.604 59.1249 383.651 59.353 383.749 59.5612C383.807 59.6454 383.884 59.7156 383.972 59.7667C384.061 59.8177 384.16 59.8485 384.262 59.8565C384.364 59.8645 384.467 59.8499 384.562 59.8135C384.658 59.7771 384.744 59.7199 384.815 59.6459C384.943 59.3722 384.995 59.0688 384.966 58.7677L384.99 55.2188Z" fill="white"/>
<path d="M387.276 60.7118V55.2188H388.38V57.6412L390.61 55.2188H392.093L390.037 57.3566L392.207 60.7118H390.791L389.278 58.15L388.38 59.0522V60.7118H387.276Z" fill="white"/>
<path d="M392.483 62.322C392.688 61.88 392.839 61.5408 392.924 61.2986C393.017 61.0306 393.096 60.7577 393.159 60.4809C393.225 60.1721 393.279 59.8754 393.315 59.5967C393.352 59.3136 393.37 59.0283 393.37 58.7429C393.371 58.174 393.307 57.6068 393.177 57.0531C393.001 56.3896 392.767 55.743 392.478 55.1211H393.207C393.576 55.6469 393.87 56.2216 394.081 56.829C394.286 57.4127 394.392 58.0269 394.394 58.646C394.387 59.2136 394.304 59.7779 394.147 60.3234C393.941 61.0357 393.624 61.7103 393.207 62.322H392.483Z" fill="white"/>
<path d="M416.404 66.9018C416.146 66.8702 415.79 66.6641 415.766 66.3752L416.128 66.3007C416.293 66.6122 416.742 66.5914 416.994 66.4088C417.254 66.2208 417.201 65.843 416.879 65.7858C416.44 65.7081 415.763 65.911 415.571 65.3364C415.251 64.3776 416.924 63.8758 417.233 64.7916L416.891 64.8644C416.825 64.8554 416.767 64.7466 416.711 64.7092C416.412 64.5116 415.786 64.7843 415.949 65.1934C415.98 65.2735 416.103 65.3477 416.185 65.3617C416.598 65.4319 417.231 65.258 417.466 65.7181C417.806 66.3828 417.147 66.8333 416.57 66.9018C416.526 66.907 416.448 66.907 416.404 66.9018Z" fill="#195123"/>
<path d="M430.365 46.5285C430.381 46.6484 430.381 46.9838 430.365 47.104C430.327 47.4126 430.028 47.7522 429.703 47.7272V47.3436C430.151 47.2951 430.186 46.3798 429.78 46.2943C429.487 46.2326 429.411 46.4095 429.336 46.6484C429.216 47.0308 429.209 47.5803 428.71 47.6685C427.681 47.8504 427.542 46.0189 428.519 45.905V46.3125C428.016 46.3755 428.099 47.4043 428.639 47.2602C428.904 47.1889 428.942 46.5472 429.044 46.3041C429.342 45.5891 430.278 45.833 430.365 46.5285Z" fill="#195123"/>
<path d="M400.784 51.8945L403.271 52.6764C403.253 52.7663 403.301 53.083 403.246 53.1295L400.879 54.0282C400.856 53.8869 400.846 53.7435 400.858 53.6001L401.515 53.3786C401.505 53.249 401.551 52.5438 401.479 52.4915L400.835 52.2979L400.784 52.0384V51.8945ZM402.843 52.8776L401.802 52.5897L401.826 53.2607L402.81 52.9274L402.843 52.8776Z" fill="#195123"/>
<path d="M415.118 36.3837C416.595 36.2857 417.745 36.6988 419.111 37.1434C420.777 37.6851 422.547 38.2499 424.17 38.8999C426.015 39.6393 426.867 40.413 426.958 42.5252C426.86 45.8843 427.085 49.3164 426.956 52.6672C426.768 57.5898 422.897 59.7763 419.076 61.8503C418.263 62.2915 417.328 62.8218 416.488 63.1845C415.773 63.4931 415.378 63.4879 414.665 63.1769C414.091 62.9269 413.457 62.5575 412.898 62.2578C411.143 61.3173 409.259 60.2764 407.694 59.0422C405.429 57.2558 404.357 55.5733 404.235 52.5958C404.102 49.3188 404.287 45.9792 404.211 42.6931C404.29 40.4665 405.027 39.6908 406.999 38.9001C408.971 38.1095 411.184 37.3728 413.188 36.778C413.797 36.5968 414.482 36.4257 415.118 36.3837ZM407.81 44.0245H408.389C409.243 44.0245 409.727 42.9585 409.205 42.287C409.069 42.1123 408.703 41.8909 408.484 41.8909H406.91V45.0676L406.945 45.1036H407.774L407.809 45.0676L407.81 44.0245ZM410.744 41.8909H409.845V45.0676L409.881 45.1036H410.709L410.744 45.0676V41.8909ZM412.223 41.8909H411.336V45.0676L411.371 45.1036H412.2L412.235 45.0676V43.3773L413.383 45.1036H414.235L414.271 45.0676V41.8909H413.371V43.5932L413.317 43.563L412.223 41.8909ZM414.839 45.0796C414.882 45.0906 414.922 45.1011 414.968 45.1049C415.404 45.1396 416.309 45.1316 416.714 45.0009C418.036 44.5738 418.133 42.5641 416.85 42.0234C416.759 41.9851 416.474 41.8912 416.389 41.8912H414.838L414.839 45.0796ZM420.413 45.1034H421.288C421.299 45.1034 421.329 45.0651 421.323 45.0451L420.2 41.9142L419.161 41.8894L418.02 45.0539L418.046 45.1034H418.945L419.137 44.5743L420.197 44.5791L420.413 45.1034ZM423.347 41.8909H421.703V45.0676L421.738 45.1036H422.566L422.602 45.0676V43.9288L422.684 43.9531L423.236 45.0004L423.324 45.1036H424.247L424.279 45.0479L423.618 43.8469C424.645 43.476 424.418 42.0126 423.347 41.8909ZM416.59 48.3641C416.46 47.2612 415.091 46.9863 414.255 47.4729C413.561 47.8767 413.365 48.8164 413.637 49.5451C414.084 50.7416 415.854 50.8332 416.505 49.7764C416.525 49.744 416.638 49.5408 416.638 49.5269V48.6637L416.602 48.6277H415.016L414.981 48.6637V49.2868L415.016 49.3229H415.833C415.52 49.8927 414.609 49.7982 414.466 49.1369C414.343 48.5694 414.628 48.0019 415.271 48.1059C415.462 48.1369 415.632 48.3637 415.655 48.3637L416.59 48.3641ZM409.679 47.2852H408.78V50.4619L408.815 50.4979H410.614L410.65 50.4619V49.7788H409.715L409.679 49.7428L409.679 47.2852ZM413.111 47.2852H411.076V50.4619L411.111 50.4979H413.076L413.111 50.4619V49.7667L413.076 49.7307H411.975V49.2391L412.011 49.2032H412.993V48.5079H412.011L411.975 48.4719V48.0284H413.111V47.2852ZM419.3 50.4979H420.176C420.183 50.4979 420.218 50.4622 420.208 50.4428L419.088 47.309L418.068 47.2837L418.031 47.2995C417.694 48.3135 417.281 49.3037 416.945 50.3177C416.933 50.3524 416.868 50.4979 416.933 50.4979H417.809C417.9 50.4487 417.975 49.9988 418.013 49.9738L419.102 49.9849C419.14 50.069 419.23 50.4773 419.3 50.4979ZM421.49 47.2852H420.59V50.4619L420.625 50.4979H422.424L422.46 50.4619V49.7788H421.49V47.2852ZM417.626 52.6618C417.459 52.6861 417.357 52.783 417.257 52.9114L415.016 56.4675L414.958 56.4312C414.606 56.0354 414.288 55.5551 413.928 55.1726C413.377 54.5867 412.614 55.1795 412.974 55.8037C413.506 56.372 413.977 57.1209 414.519 57.6665C414.809 57.9584 415.254 57.9791 415.525 57.6538C416.438 56.2323 417.406 54.8398 418.278 53.3945C418.403 52.9556 418.064 52.598 417.626 52.6618Z" fill="#195123"/>
<path d="M422.327 64.0772C422.072 63.6206 421.841 63.1438 421.573 62.6947C421.55 62.656 421.53 62.578 421.475 62.591L421.643 64.1137C421.669 64.1769 421.416 64.3101 421.392 64.3086L420.126 63.3583L420.953 64.8569L420.623 65.0365L419.463 62.8792L419.825 62.7143L421.309 63.8375L421.119 61.9801C421.133 61.9068 421.401 61.8008 421.474 61.752L422.631 63.878L422.611 63.9213L422.327 64.0772Z" fill="#195123"/>
<path d="M410.956 63.3011C410.831 63.428 410.613 63.4895 410.444 63.4296C410.49 63.551 410.595 63.5847 410.645 63.7176C410.725 63.9317 410.675 64.1513 410.538 64.3279C410.053 64.9586 409.211 64.1992 408.718 63.9416L409.878 61.8248C409.907 61.8033 410.008 61.8654 410.042 61.8827C410.256 61.9906 410.868 62.3298 410.998 62.4964C411.189 62.7415 411.175 63.0792 410.956 63.3011ZM410.101 62.2796L409.76 62.9106C410.004 63.0783 410.507 63.4174 410.693 62.9982C410.878 62.5791 410.341 62.4583 410.101 62.2796ZM409.214 63.8841C409.497 63.9983 409.997 64.4374 410.236 64.0456C410.523 63.5721 409.907 63.3498 409.583 63.1879L409.214 63.8841Z" fill="#195123"/>
<path d="M403.276 46.9844V47.344L401.525 48.4947H403.276V48.8664C403.255 48.9006 403.229 48.8993 403.194 48.9035C402.495 48.9868 401.636 48.8378 400.92 48.9035L400.848 48.88C400.84 48.7822 400.808 48.592 400.873 48.5179L402.59 47.3682H400.838V46.9846L403.276 46.9844Z" fill="#195123"/>
<path d="M430.35 50.4766V50.8241L428.598 52.0109H430.35V52.3945H427.912C427.928 52.275 427.869 52.1124 427.958 52.0214L429.664 50.8841H427.948L427.916 50.8444C427.922 50.7297 427.876 50.5677 427.948 50.4766H430.35Z" fill="#195123"/>
<path d="M426.157 59.0667L427.481 60.2287L427.234 60.5277L425.4 58.9104C425.495 58.8502 425.562 58.6622 425.672 58.6565L427.695 58.9464L426.395 57.7597L426.62 57.4824L428.476 59.0784L428.225 59.3483L426.157 59.0667Z" fill="#195123"/>
<path d="M402.046 56.2126L403.725 55.7573L403.821 56.1405L401.492 56.7661L401.395 56.4275L402.779 54.8464L401.088 55.3027L400.99 54.9414L403.325 54.3047L403.407 54.6535L402.081 56.1405L402.046 56.2126Z" fill="#195123"/>
<path d="M407.27 62.2256L408.297 60.7883L408.594 61.0149L407.222 63.0165C407.201 63.0311 406.923 62.8428 406.914 62.7892L406.985 60.6912L405.989 62.127C405.935 62.1585 405.716 61.9639 405.66 61.9242L407.023 59.9221C407.067 59.9156 407.307 60.0791 407.317 60.1278L407.27 62.2256Z" fill="#195123"/>
<path d="M420.903 35.8299L421.424 34.1516L421.802 34.283L421.046 36.5871L420.712 36.4853L420.157 34.4634L419.622 36.1145L419.246 36.0213L419.982 33.698C420.011 33.6727 420.316 33.756 420.341 33.8219L420.856 35.7689L420.903 35.8299Z" fill="#195123"/>
<path d="M403.271 49.6116V50.6064C403.271 50.6803 403.199 50.9276 403.164 51.0021C402.763 51.8567 400.833 51.7397 400.833 50.5584V49.6113L403.271 49.6116ZM402.94 50.0192H401.164V50.4627C401.164 50.5612 401.237 50.773 401.296 50.8568C401.543 51.2056 402.424 51.2095 402.726 50.9426C402.825 50.8559 402.939 50.6394 402.939 50.5108L402.94 50.0192Z" fill="#195123"/>
<path d="M429.16 58.0076L426.937 57.0471C426.921 57.0248 426.96 56.9369 426.972 56.9058C427.295 56.0549 427.582 55.3274 428.646 55.6886C428.924 55.7827 429.297 56.0054 429.454 56.2603C429.827 56.8625 429.338 57.4368 429.16 58.0076ZM427.386 56.8091L428.981 57.5028C429.389 56.8563 429.303 56.3983 428.585 56.1096C427.867 55.8212 427.602 56.1623 427.386 56.8091Z" fill="#195123"/>
<path d="M414.515 66.8795L414.092 66.7324L414.015 65.6835L413.521 65.5131L413.214 66.3906L412.856 66.2654L413.663 63.9551C414.118 64.1714 415.049 64.2691 415.106 64.9021C415.141 65.2849 414.929 65.6358 414.563 65.7422C414.515 65.7563 414.411 65.7405 414.399 65.7911L414.515 66.8795ZM413.639 65.2253C413.952 65.2905 414.418 65.6273 414.638 65.2185C414.922 64.6915 414.298 64.5182 413.924 64.4111L413.639 65.2253Z" fill="#195123"/>
<path d="M428.729 53.0569C428.97 53.0416 429.484 53.1091 429.71 53.1992C430.597 53.5534 430.48 54.9088 429.582 55.1197C429.286 55.1894 428.682 55.1214 428.396 55.0097C427.431 54.6329 427.641 53.125 428.729 53.0569ZM428.753 53.4636C428.068 53.4941 427.89 54.3368 428.489 54.6045C428.738 54.7162 429.316 54.7851 429.575 54.7051C430.035 54.5632 430.111 53.9208 429.712 53.6531C429.519 53.5236 428.986 53.4534 428.753 53.4636Z" fill="#195123"/>
<path d="M406.385 35.2891C407.141 35.1856 407.46 35.7819 407.652 36.4151C407.835 37.0181 407.65 37.5417 407.043 37.7531C406.208 38.0435 405.803 37.3915 405.586 36.686C405.382 36.0256 405.677 35.3861 406.385 35.2891ZM406.361 35.6482C405.938 35.7209 405.857 36.163 405.959 36.5243C406.08 36.9584 406.364 37.6054 406.917 37.434C407.572 37.2311 407.284 36.4309 407.043 36.0018C406.889 35.7292 406.681 35.5932 406.361 35.6482Z" fill="#195123"/>
<path d="M428.736 37.6582C428.755 37.7302 428.955 37.9318 428.918 37.9906L428.125 38.5568L428.753 39.476L429.579 38.9017L429.802 39.2253L427.806 40.6272L427.58 40.3041L428.445 39.6929C428.465 39.6554 428.297 39.4277 428.261 39.3735C428.123 39.1653 427.98 38.9552 427.825 38.7595L426.972 39.355C426.911 39.366 426.76 39.0936 426.728 39.0351L428.736 37.6582Z" fill="#195123"/>
<path d="M414.58 35.2764C414.164 35.6969 413.068 35.7339 412.955 34.9972L413.32 34.9533C413.47 35.2509 413.808 35.2986 414.098 35.1834C414.328 35.0919 414.478 34.847 414.312 34.6196C414.08 34.3005 413.077 34.6731 412.872 33.9901C412.581 33.0183 414.184 32.6447 414.521 33.4221C414.534 33.4506 414.577 33.5273 414.542 33.5473L414.201 33.6038C414.045 33.3789 413.911 33.3112 413.636 33.3489C413.375 33.3844 413.102 33.643 413.287 33.9062C413.471 34.1693 414.185 34.0081 414.516 34.2433C414.846 34.4784 414.854 34.9992 414.58 35.2764Z" fill="#195123"/>
<path d="M404.929 36.6243L404.627 36.8132C404.533 36.7935 404.479 36.7278 404.372 36.72C404.076 36.6988 403.69 37.0171 403.805 37.3435C403.952 37.7573 404.567 37.3532 404.839 37.2883C405.085 37.2293 405.299 37.2188 405.498 37.4035C406.237 38.0909 405.035 39.2172 404.315 38.8169C404.275 38.7944 404.096 38.6572 404.125 38.6152L404.425 38.4268C404.739 38.7029 405.43 38.3333 405.345 37.9183C405.235 37.3842 404.547 37.8443 404.248 37.9128C403.54 38.0754 403.16 37.3352 403.592 36.7922C403.91 36.3911 404.569 36.142 404.929 36.6243Z" fill="#195123"/>
<path d="M409.359 34.9391L409.038 35.034C408.96 35.0013 408.93 34.9328 408.848 34.8938C408.532 34.7449 407.979 35.0106 408.111 35.4004C408.143 35.4944 408.233 35.5698 408.331 35.5851C408.781 35.6555 409.379 35.3419 409.696 35.8325C410.314 36.7901 408.434 37.6215 408.057 36.6419L408.401 36.5297C408.581 36.7323 408.766 36.7758 409.023 36.6966C409.249 36.6271 409.478 36.459 409.414 36.1903C409.315 35.7735 408.68 36.0036 408.377 35.9956C407.602 35.9751 407.467 35.0328 408.13 34.6649C408.54 34.4375 409.199 34.4073 409.359 34.9391Z" fill="#195123"/>
<path d="M428.262 48.2246V49.3516H428.949V48.2966H429.28V49.3516H430.014V48.2246H430.345V49.7592H427.943L427.907 49.7232V48.2246H428.262Z" fill="#195123"/>
<path d="M400.833 42.8763V42.5047L400.869 42.4688H403.235L403.271 42.5047V43.5596C403.271 43.5831 403.225 43.7282 403.211 43.763C402.992 44.3357 402.097 44.3955 401.808 43.8664C401.783 43.8205 401.708 43.6465 401.708 43.6073V42.9121L401.673 42.8761L400.833 42.8763ZM402.94 42.8763H402.052L402.016 42.9123V43.3439C402.016 43.3541 402.045 43.5046 402.05 43.5251C402.153 43.8957 402.736 43.9157 402.888 43.6035C402.899 43.5813 402.94 43.4761 402.94 43.4636V42.8763Z" fill="#195123"/>
<path d="M412.568 64.841L411.613 64.3611L411.293 65.0323L412.262 65.5381L412.106 65.8273L410.772 65.1281L411.919 62.9512L413.231 63.6822C413.206 63.7415 413.129 63.9582 413.059 63.9517L412.128 63.455L412.085 63.4757L411.791 64.0597L412.678 64.5546L412.568 64.841Z" fill="#195123"/>
<path d="M424.176 36.2179L425.147 36.6022L425.017 36.9128L424.07 36.5067L423.775 37.1895L424.79 37.6108L424.697 37.9444L423.277 37.3574L424.199 35.1016L425.595 35.6813L425.467 35.9752L424.452 35.5726L424.176 36.2179Z" fill="#195123"/>
<path d="M404.485 38.9741L404.256 39.3352L403.565 39.1438L403.116 39.8308C403.094 39.933 403.478 40.3053 403.53 40.4245C403.502 40.4732 403.332 40.7854 403.278 40.7479L401.768 38.6785C401.828 38.6138 401.957 38.3324 402.033 38.3281L404.485 38.9741ZM402.922 39.5971L403.254 39.0583L402.236 38.7342C402.229 38.7714 402.242 38.7897 402.259 38.8189C402.354 38.9806 402.693 39.3869 402.829 39.5366C402.855 39.5659 402.876 39.6051 402.922 39.5971Z" fill="#195123"/>
<path d="M403.537 60.0677L405.762 58.8315C405.864 58.8097 406.036 59.0526 406.113 59.1245L405.088 61.4819L404.795 61.2034L405.072 60.563L404.436 59.9819L403.834 60.3091L403.537 60.0677ZM405.667 59.2767L404.744 59.7805C404.735 59.8154 404.754 59.8205 404.767 59.8405C404.869 59.9902 405.092 60.1102 405.206 60.2593L405.667 59.2767Z" fill="#195123"/>
<path d="M424.924 62.4483L424.587 62.6374L424.072 62.2196C424.029 62.1981 423.97 62.2502 423.932 62.2709C423.73 62.3823 423.549 62.5469 423.35 62.6642C423.3 62.7656 423.503 63.2247 423.502 63.3678L423.185 63.5752L422.569 61.058C422.667 61.0138 422.858 60.8079 422.959 60.8545L424.889 62.377L424.924 62.4483ZM423.788 62.0166L422.96 61.298L423.22 62.3528C423.254 62.3832 423.703 62.0356 423.788 62.0166Z" fill="#195123"/>
<path d="M403.041 59.5223L402.831 59.1541L403.25 58.6176L402.803 57.9026L402.128 58.0751L401.904 57.7243C402.201 57.6988 404.281 57.044 404.389 57.1124C404.413 57.1274 404.637 57.4518 404.59 57.5073L403.041 59.5223ZM404.153 57.5088L403.111 57.7725C403.068 57.8172 403.428 58.253 403.443 58.3474C403.485 58.3558 403.502 58.3255 403.526 58.3C403.747 58.0688 403.935 57.7489 404.153 57.5088Z" fill="#195123"/>
<path d="M420.217 65.2732L419.853 65.4376C419.786 65.4246 419.479 65.0163 419.388 64.9735C419.347 64.9543 419.315 64.9588 419.277 64.9805L418.595 65.3441L418.704 66.0488L418.347 66.2324L417.979 63.667C418.063 63.6305 418.321 63.4531 418.393 63.4866L420.217 65.2732ZM418.347 63.9552L418.535 64.999C418.556 65.0233 418.579 64.9985 418.6 64.9913C418.653 64.9732 419.099 64.7463 419.116 64.7224L418.347 63.9552Z" fill="#195123"/>
<path d="M412.239 35.2333L411.414 35.4578L411.356 36.1665L410.988 36.2852L411.153 33.6835C411.269 33.668 411.517 33.5303 411.604 33.6113L412.998 35.6762C413.008 35.7454 412.684 35.7944 412.62 35.8184L412.239 35.2333ZM411.485 34.0318L411.438 34.0438L411.414 35.1346L412.053 34.9667L411.485 34.0318Z" fill="#195123"/>
<path d="M430.347 42.2327V42.6643L429.671 42.8789L429.672 43.7193L430.347 43.9587V44.3663L427.923 43.5299L427.907 43.1066L430.347 42.2327ZM429.376 42.9759L428.335 43.2878L429.376 43.6471V42.9759Z" fill="#195123"/>
<path d="M403.271 44.8008V46.3352H402.94V45.2204L402.904 45.1844H402.265L402.229 45.2204V46.2632H401.922V45.2204L401.886 45.1844H401.2L401.164 45.2204V46.3352C401.059 46.3201 400.915 46.3726 400.833 46.2992V44.8008H403.271Z" fill="#195123"/>
<path d="M426.868 38.4262C426.914 38.5064 426.656 38.6778 426.593 38.7058C425.954 38.9887 425.168 38.4024 425.238 37.6925C425.282 37.2421 425.855 36.4235 426.301 36.3005C427.019 36.1034 427.86 36.949 427.403 37.6557L427.089 37.4293C427.317 36.9295 426.773 36.4672 426.304 36.7346C426.059 36.8743 425.637 37.5358 425.622 37.8192C425.595 38.2987 426.226 38.6048 426.574 38.255L426.868 38.4262Z" fill="#195123"/>
<path d="M417.399 33.3829L417.283 34.1223L418.25 34.2933L418.203 34.6289L417.209 34.461L417.043 35.468L416.641 35.3961L417.069 32.9766L418.512 33.2255C418.553 33.2519 418.483 33.5621 418.453 33.5681L417.399 33.3829Z" fill="#195123"/>
<path d="M423.821 34.9728L423.711 35.2862L423.038 35.0785L422.377 37.0582L422.008 36.9392L422.661 34.9371L421.999 34.7074L422.093 34.373L423.821 34.9728Z" fill="#195123"/>
<path d="M430.345 44.8691H427.907V45.2767H430.345V44.8691Z" fill="#195123"/>
<path d="M410.018 34.0879L410.727 36.4364L410.351 36.5324L409.642 34.2648V34.1856L410.018 34.0879Z" fill="#195123"/>
<path d="M424.918 59.3125L426.49 61.1661C426.49 61.1839 426.247 61.3989 426.231 61.4066C426.205 61.4188 426.185 61.4281 426.16 61.4071L424.624 59.5598L424.918 59.3125Z" fill="#195123"/>
<path d="M419.392 33.4866L418.778 35.8577L418.4 35.7612L419.015 33.3887L419.392 33.4866Z" fill="#195123"/>
<path d="M415.506 32.9062L415.553 35.3517H415.151L415.127 32.9062H415.506Z" fill="#195123"/>
<path d="M415.766 44.2679V42.6855H416.156C416.914 42.6855 417.095 43.9093 416.445 44.2007C416.417 44.2134 416.266 44.2679 416.251 44.2679H415.766Z" fill="#195123"/>
<path d="M422.608 43.2893V42.666H423.117C423.242 42.666 423.363 42.8449 423.367 42.9664C423.371 43.1016 423.255 43.2893 423.117 43.2893H422.608Z" fill="#195123"/>
<path d="M418.868 49.2626H418.253L418.537 48.3516L418.868 49.2626Z" fill="#195123"/>
<path d="M419.975 43.862H419.384C419.468 43.5967 419.53 43.26 419.643 43.0101C419.654 42.9864 419.658 42.9539 419.691 42.9512L419.975 43.862Z" fill="#195123"/>
<path d="M407.813 43.2937V42.6465H408.251C408.389 42.6465 408.5 42.8399 408.5 42.9701C408.5 43.1003 408.389 43.2937 408.251 43.2937H407.813Z" fill="#195123"/>
</g>
</g>
<defs>
<clipPath id="clip0_4910_1237">
<rect width="156" height="35" fill="white" transform="translate(277 31)"/>
</clipPath>
</defs>
</svg>
